<svg version="1.1" id="Layer_1" xmlns="http://www.w3.org/2000/svg" xmlns:xlink="http://www.w3.org/1999/xlink" x="0px" y="0px"
	 width="100%" viewBox="0 0 482 150" enable-background="new 0 0 482 150" xml:space="preserve">
<path fill="#000000" opacity="1.000000" stroke="none" 
	d="
M310.000000,151.000000 
	C206.666702,151.000000 103.833397,151.000000 1.000069,151.000000 
	C1.000046,101.000046 1.000046,51.000092 1.000023,1.000103 
	C161.666580,1.000068 322.333160,1.000068 482.999817,1.000034 
	C482.999878,50.999893 482.999878,100.999786 482.999939,150.999847 
	C425.500000,151.000000 368.000000,151.000000 310.000000,151.000000 
M141.010040,20.989964 
	C141.010040,20.989964 141.076813,20.964750 140.966324,20.425125 
	C140.656815,20.258280 140.347305,20.091433 140.009354,19.990873 
	C140.009354,19.990873 140.076157,19.963667 139.957733,19.428658 
	C139.650116,19.260353 139.342484,19.092049 139.009781,18.990223 
	C139.009781,18.990223 139.076279,18.965187 138.958527,18.429996 
	C138.651123,18.261288 138.343704,18.092579 138.009125,17.990665 
	C138.009125,17.990665 138.075439,17.962341 137.965073,17.422943 
	C137.655396,17.256498 137.345703,17.090054 137.009720,16.990299 
	C137.009720,16.990299 137.076401,16.963984 136.965729,16.424036 
	C136.655853,16.257235 136.345963,16.090435 136.009705,15.990313 
	C136.009705,15.990313 136.076385,15.963955 135.966232,15.424796 
	C135.656998,15.258216 135.347748,15.091637 135.009003,14.991247 
	C135.009003,14.991247 135.075760,14.963015 134.957291,14.428603 
	C134.649994,14.260468 134.342682,14.092334 134.009445,13.990554 
	C134.009445,13.990554 134.075836,13.964679 133.958176,13.430101 
	C133.651154,13.261490 133.344131,13.092879 133.008743,12.991005 
	C133.008743,12.991005 133.074966,12.961450 132.965042,12.422132 
	C132.655365,12.255951 132.345673,12.089769 132.009750,11.990260 
	C132.009750,11.990260 132.076447,11.964076 131.966019,11.423871 
	C131.656006,11.257110 131.345993,11.090349 131.009750,10.990260 
	C131.009750,10.990260 131.076447,10.964103 130.966583,10.424821 
	C130.657333,10.258265 130.348068,10.091708 130.008881,9.991355 
	C130.008881,9.991355 130.075623,9.962627 129.957199,9.428487 
	C129.650040,9.260442 129.342896,9.092398 129.006805,8.990975 
	C129.006805,8.990975 129.072021,8.958987 128.824707,8.284863 
	C128.362686,8.211544 127.900658,8.138226 127.472603,8.065220 
	C127.472603,8.065220 127.495422,8.090389 127.091095,7.619981 
	C126.704605,7.731053 126.318123,7.842125 125.994171,7.990810 
	C125.994171,7.990810 125.969078,7.922281 125.433846,8.050925 
	C125.262871,8.359903 125.091896,8.668881 124.989151,8.989006 
	C124.989151,8.989006 124.978485,8.920710 124.438354,9.048625 
	C124.267532,9.360359 124.096703,9.672093 123.996361,9.991757 
	C123.996361,9.991757 124.000130,9.920935 123.547203,10.059000 
	C123.199219,10.212327 123.072685,10.473051 122.935371,11.501836 
	C112.350533,22.001040 101.765694,32.500244 90.470367,42.908985 
	C85.801895,38.484413 80.836601,34.326309 76.553741,29.555563 
	C72.754333,25.323339 72.404251,24.938429 68.649940,28.698790 
	C66.095932,31.256920 63.556873,33.829983 61.001007,36.386246 
	C48.161991,49.227268 35.278316,62.024467 22.570932,74.994415 
	C21.718801,75.864159 21.454023,78.670593 22.166595,79.493797 
	C27.238102,85.352707 32.503212,91.060867 37.964840,96.560646 
	C43.719971,102.355988 49.927788,107.704628 55.630692,113.548180 
	C61.092564,119.144753 66.160133,125.126129 71.104691,130.609772 
	C78.443001,123.526009 84.429619,117.747063 90.889839,112.358543 
	C101.918533,123.418518 113.132439,134.303864 123.843414,145.663406 
	C126.463974,148.442657 127.608910,148.409119 129.728088,145.846390 
	C131.922089,143.193176 134.105560,140.511963 136.512421,138.057526 
	C145.044220,129.357071 153.669464,120.748260 162.930023,112.128998 
	C165.569611,114.699997 168.231003,117.249084 170.843430,119.847389 
	C174.305130,123.290359 177.728577,126.771782 180.439011,129.501923 
	C198.245956,111.701019 215.369919,94.582855 233.104416,76.854378 
	C230.015701,74.116936 226.549866,71.045273 223.314178,67.296654 
	C223.847702,66.496994 224.779449,65.731140 224.850662,64.892235 
	C225.344025,59.080364 229.204681,57.980686 234.020645,58.968208 
	C234.345215,67.031609 234.816788,75.092865 234.934265,83.159286 
	C234.995895,87.390274 234.436935,91.630310 233.717743,96.497704 
	C232.202789,97.411392 230.687820,98.325081 229.172867,99.238762 
	C230.868729,99.844711 232.538330,100.863297 234.265778,100.973305 
	C238.230423,101.225761 242.228745,101.143013 246.200409,100.941063 
	C247.078659,100.896416 247.903107,99.794220 248.752319,99.178978 
	C248.037628,98.416428 247.425156,97.499947 246.577744,96.937241 
	C245.822098,96.435455 244.806717,96.324814 243.969849,95.091988 
	C243.969849,83.893478 243.969849,72.694962 243.969849,61.414875 
	C245.557373,62.078667 246.955948,62.663456 248.728409,63.404579 
	C248.878983,61.586807 248.985016,60.306675 249.544632,59.021633 
	C249.544632,59.021633 249.992722,59.092094 249.987579,59.019615 
	C249.987579,59.019615 249.916367,59.034073 249.992432,59.586472 
	C250.304581,59.749920 250.616730,59.913372 250.999786,60.001339 
	C250.999786,60.001339 250.921799,60.069248 251.005219,60.610615 
	C251.315247,60.766365 251.625259,60.922112 251.992065,61.004898 
	C251.992065,61.004898 251.913559,61.053741 251.928040,61.723022 
	C252.279205,62.185608 252.630356,62.648197 252.961288,63.889938 
	C253.928070,64.903824 254.894852,65.917709 255.861633,66.931587 
	C256.588867,66.174110 257.957092,65.394974 257.932343,64.662910 
	C257.825256,61.494694 257.311005,58.340240 256.773376,54.281578 
	C244.539719,54.281578 232.306061,54.281578 220.101791,54.281578 
	C219.969223,55.906376 219.850922,57.356304 219.717010,58.997578 
	C218.017151,58.997578 216.540070,58.997578 214.711044,58.409939 
	C207.157730,50.827782 199.657883,43.191261 192.027451,35.687531 
	C188.472397,32.191517 184.664185,28.952930 180.157394,24.858786 
	C174.163376,31.234402 168.623474,37.127003 162.412216,42.861568 
	C158.554626,39.255936 154.697037,35.650303 150.963730,31.391951 
	C150.664108,30.909744 150.364471,30.427538 150.001709,29.997520 
	C150.001709,29.997520 150.076141,29.963425 149.957642,29.428549 
	C149.650070,29.260303 149.342514,29.092056 149.009735,28.990274 
	C149.009735,28.990274 149.076218,28.965107 148.958481,28.430006 
	C148.651123,28.261316 148.343765,28.092627 148.009109,27.990698 
	C148.009109,27.990698 148.075409,27.962280 147.964844,27.422756 
	C147.655045,27.256264 147.345230,27.089771 147.010010,26.990025 
	C147.010010,26.990025 147.076782,26.964682 146.965790,26.424318 
	C146.655655,26.257298 146.345535,26.090279 146.009995,25.990017 
	C146.009995,25.990017 146.076752,25.964621 145.966293,25.425083 
	C145.656845,25.258268 145.347397,25.091454 145.009308,24.990932 
	C145.009308,24.990932 145.076111,24.963520 144.957703,24.428614 
	C144.650146,24.260342 144.342575,24.092070 144.009750,23.990273 
	C144.009750,23.990273 144.076233,23.965038 143.958496,23.429960 
	C143.651154,23.261280 143.343796,23.092600 143.009109,22.990685 
	C143.009109,22.990685 143.075409,22.962223 142.964798,22.422684 
	C142.654968,22.256195 142.345123,22.089705 142.010071,21.989960 
	C142.010071,21.989960 142.076843,21.964811 141.965805,21.424376 
	C141.655624,21.257318 141.345444,21.090261 141.010040,20.989964 
M315.008789,67.956779 
	C315.008789,67.956779 315.085999,67.918709 314.700958,67.347008 
	C313.806549,67.193886 312.912170,67.040764 312.017090,66.963730 
	C312.017090,66.963730 312.087494,66.934837 311.568970,66.281540 
	C308.355957,66.494781 305.142944,66.708023 302.007812,66.965233 
	C302.007812,66.965233 301.962646,66.888046 301.303070,66.920090 
	C300.770844,67.244408 300.238617,67.568718 299.014618,67.948853 
	C292.236572,72.391403 292.785431,79.310196 292.996399,86.047874 
	C293.151520,91.003860 294.998047,95.162628 299.208038,98.135994 
	C304.459595,101.845024 309.923035,102.015213 315.350739,98.914169 
	C317.698425,97.572861 320.178253,95.690239 318.250610,91.599609 
	C317.097015,92.248344 316.026276,92.807449 314.997803,93.435707 
	C307.684814,97.903091 302.982208,96.112625 301.099335,87.828964 
	C300.386383,84.692451 300.475525,81.373627 300.817719,77.712204 
	C301.066559,72.520950 303.749878,69.856087 309.469299,69.992378 
	C309.627716,70.050484 309.786102,70.108589 310.227478,70.485245 
	C310.227478,70.485245 310.637085,70.367699 310.761902,70.349358 
	C310.761902,70.349358 310.750153,70.223724 310.609009,70.896744 
	C311.095215,71.927872 311.581451,72.959000 312.055939,74.687561 
	C313.035858,75.427383 314.015778,76.167198 315.598389,76.891563 
	C316.102631,76.289467 316.606873,75.687370 317.049255,74.988663 
	C317.049255,74.988663 317.085754,75.096931 317.717590,74.755669 
	C319.614075,72.589851 319.919678,70.589188 317.073669,68.983986 
	C317.073669,68.983986 317.077118,68.903008 316.812988,68.336227 
	C316.220917,68.182617 315.628876,68.028999 315.008789,67.956779 
M366.000702,95.994194 
	C366.000702,95.994194 366.017639,95.908798 365.215820,95.986320 
	C364.166260,96.391403 363.116669,96.796478 361.881989,97.897400 
	C360.688995,100.489471 362.068512,101.077560 364.310425,101.064217 
	C368.297455,101.040489 372.295380,101.221916 376.266602,100.969460 
	C377.880890,100.866837 379.437347,99.854340 382.307159,98.769157 
	C378.971344,97.480087 377.027710,96.729012 375.024628,95.047142 
	C375.040619,86.347237 374.991669,77.646400 375.116486,68.948059 
	C375.149323,66.660034 374.671539,65.474968 371.324524,66.101280 
	C368.414795,66.562187 365.505035,67.023102 361.045441,67.729507 
	C363.605438,68.937569 364.807495,69.504807 366.022400,70.995590 
	C366.065369,78.990425 366.108337,86.985268 365.980835,95.465736 
	C365.959076,95.635918 365.937286,95.806099 366.000702,95.994194 
M436.829834,68.344910 
	C436.226288,68.202820 435.622772,68.060730 435.020752,67.991913 
	C435.020752,67.991913 435.072113,67.939613 434.744537,67.225861 
	C431.507721,66.853706 428.270905,66.481552 424.513489,66.043053 
	C424.340515,66.069206 424.167542,66.095352 423.372375,66.191956 
	C422.558990,66.784958 421.745575,67.377960 420.188232,68.001007 
	C415.128784,71.523895 414.413300,76.023193 418.640289,80.081406 
	C420.964813,82.313148 423.619202,84.508324 426.537170,85.755089 
	C434.111481,88.991386 434.800720,90.678726 429.144684,96.953865 
	C427.767426,96.933006 426.390167,96.912140 424.870972,96.457970 
	C424.695068,96.186256 424.447876,96.021500 423.813293,95.337738 
	C422.566040,93.201828 421.318756,91.065918 420.102417,88.939934 
	C420.102417,88.939934 420.107910,88.906319 420.082916,88.554062 
	C420.082916,88.554062 420.044373,88.201576 420.746490,87.800766 
	C420.481842,87.197441 420.034729,86.050995 419.979065,86.069710 
	C418.295044,86.635483 415.218811,87.354828 415.235535,87.972290 
	C415.328461,91.404068 413.327698,95.663292 418.359375,98.024124 
	C418.359375,98.024124 418.794067,98.055931 419.181488,98.728142 
	C423.739197,101.627205 428.358856,102.382629 433.790527,98.999298 
	C442.788910,92.704231 442.318054,86.436623 432.494537,81.673523 
	C430.597595,80.753754 428.716095,79.802231 426.826660,78.866928 
	C422.638580,76.793770 421.982025,73.574287 425.807495,70.027138 
	C427.855804,70.428642 429.904083,70.830154 431.982330,71.625305 
	C431.982330,71.625305 432.112701,71.997955 431.993103,72.793991 
	C432.530518,74.183296 433.067902,75.572601 433.605347,76.961884 
	C434.759918,76.331673 435.914490,75.701462 437.059540,75.009117 
	C437.059540,75.009117 437.038116,75.067665 437.532135,74.925125 
	C437.645691,74.627289 437.759216,74.329445 438.009033,73.598007 
	C438.009033,73.598007 438.152832,73.166840 438.731567,72.813202 
	C438.177124,71.521263 437.622681,70.229324 437.001221,69.000305 
	C437.001221,69.000305 437.064575,68.934883 436.829834,68.344910 
M336.032196,66.974358 
	C335.544495,62.111671 335.056763,57.248981 334.520508,51.902386 
	C333.782043,52.198353 332.903442,52.550488 331.273438,52.744324 
	C327.912140,52.744324 324.550873,52.744324 321.189575,52.744324 
	C321.076508,53.343693 320.963440,53.943062 320.850372,54.542431 
	C322.381348,55.355267 323.912323,56.168102 325.958221,57.789547 
	C325.970062,68.535492 326.060272,79.282440 325.923462,90.026497 
	C325.898041,92.025032 324.959686,94.011948 323.721252,95.800293 
	C322.838348,96.897430 321.955414,97.994560 321.072479,99.091682 
	C322.081543,99.740913 323.063019,100.892868 324.104614,100.950104 
	C328.067291,101.167847 332.066376,101.235146 336.014069,100.905769 
	C337.212799,100.805756 338.289642,99.245422 339.909027,97.970894 
	C337.394104,96.908989 336.109680,96.366653 334.946198,94.918091 
	C334.965210,92.130859 334.859528,89.335938 335.030609,86.558083 
	C335.333405,81.642334 333.721588,76.427589 337.886139,71.708389 
	C341.337952,70.890739 344.964142,69.620461 345.976868,75.826263 
	C345.970123,82.760452 345.869720,89.697052 346.047516,96.626511 
	C346.077576,97.799316 347.304749,98.941414 348.440613,100.799683 
	C352.052673,100.251198 356.797791,103.365585 359.286285,97.689178 
	C357.517914,97.032059 356.210632,96.546280 355.000275,95.110756 
	C355.019257,89.188179 355.344788,83.243324 354.916840,77.353218 
	C354.727173,74.742767 353.013733,72.243027 351.681122,69.073212 
	C347.544769,65.350586 342.731110,66.679901 337.455994,67.098061 
	C337.262665,67.113403 337.069305,67.128738 336.032196,66.974358 
M449.145020,98.685387 
	C449.766907,98.845551 450.388824,99.005714 451.379517,99.836449 
	C455.534210,101.054100 459.755768,102.640732 462.841858,98.313744 
	C460.022583,96.824234 457.471680,95.476532 455.045166,93.171150 
	C455.044952,85.462440 455.044739,77.753731 455.869263,70.008347 
	C456.528809,70.003784 457.260284,70.182663 457.833557,69.957985 
	C459.191040,69.425995 460.473389,68.702385 461.786133,68.056229 
	C460.524048,67.691231 459.235596,66.949173 458.005005,67.035095 
	C454.875793,67.253616 453.701172,65.798752 453.984222,62.949829 
	C454.271912,60.054226 453.398254,58.472790 449.940521,58.400898 
	C444.696167,58.917236 444.250977,59.814281 446.664948,64.778275 
	C446.773041,65.000557 446.203461,65.552399 445.303162,66.161499 
	C444.210632,66.891975 443.118073,67.622444 440.709320,69.232925 
	C443.442596,69.635956 444.613770,69.808655 445.948608,70.905708 
	C445.910431,75.698906 447.489594,81.367935 445.473907,85.090263 
	C442.019257,91.469788 446.486694,94.160599 448.998566,98.003281 
	C448.998566,98.003281 448.929016,98.067230 449.145020,98.685387 
M260.997894,91.778999 
	C264.710968,101.370773 277.439972,103.617950 282.738098,98.119675 
	C283.962677,96.848831 284.445496,94.863251 285.363892,93.017128 
	C280.143890,93.762917 275.973328,95.411079 272.331635,94.621109 
	C267.431976,93.558228 267.079620,88.596016 267.983032,84.052605 
	C273.690399,84.046410 279.400635,84.129692 285.102234,83.945061 
	C286.041595,83.914650 286.942932,82.709106 287.986816,81.494598 
	C287.943695,81.310913 287.900604,81.127228 287.902313,80.151566 
	C287.263885,78.001991 286.625488,75.852409 286.013336,73.001945 
	C282.977203,66.887337 278.009979,64.556549 268.819916,66.512360 
	C264.601379,67.410141 261.012787,70.569160 260.245209,76.214653 
	C258.291718,81.268745 257.631439,86.260284 260.997894,91.778999 
M391.870361,84.048637 
	C398.560242,84.048637 405.250122,84.048637 412.997650,84.048637 
	C411.801422,80.341652 410.893921,77.529404 410.037048,73.985168 
	C409.289001,72.401680 408.944763,70.332787 407.724152,69.317352 
	C401.927277,64.494843 387.528442,64.061150 384.757446,74.613686 
	C383.814758,78.203751 382.975616,81.967659 383.024750,85.639610 
	C383.114258,92.325401 388.276733,98.424187 394.723511,100.444092 
	C400.812714,102.351967 404.741913,100.666275 409.808624,93.125580 
	C408.113647,92.882080 406.498138,93.212112 404.881104,93.534676 
	C402.340759,94.041412 399.725494,95.196815 397.272949,94.919426 
	C390.939178,94.203072 391.644226,88.754936 391.870361,84.048637 
M372.856995,59.577190 
	C374.816650,58.151024 376.183746,56.326324 374.038361,54.295521 
	C372.779205,53.103630 370.662476,51.993507 369.111298,52.199642 
	C367.907806,52.359570 366.114288,54.604630 366.097992,55.941261 
	C366.050568,59.840160 369.306641,59.746174 372.856995,59.577190 
z"/>
<path fill="#0C457D" opacity="1.000000" stroke="none" 
	d="
M90.416245,111.968124 
	C84.429619,117.747063 78.443001,123.526009 71.104691,130.609772 
	C66.160133,125.126129 61.092564,119.144753 55.630692,113.548180 
	C49.927788,107.704628 43.719971,102.355988 37.964840,96.560646 
	C32.503212,91.060867 27.238102,85.352707 22.166595,79.493797 
	C21.454023,78.670593 21.718801,75.864159 22.570932,74.994415 
	C35.278316,62.024467 48.161991,49.227268 61.001007,36.386246 
	C63.556873,33.829983 66.095932,31.256920 68.649940,28.698790 
	C72.404251,24.938429 72.754333,25.323339 76.553741,29.555563 
	C80.836601,34.326309 85.801895,38.484413 90.712250,43.297615 
	C95.009094,47.533546 99.064056,51.380852 103.294769,55.493786 
	C110.493149,63.081329 117.515778,70.403244 124.537544,77.724274 
	C118.528000,84.056976 113.168251,89.704948 107.626022,95.427353 
	C107.382187,95.796783 107.205406,95.981911 106.941818,96.004883 
	C106.970459,95.952621 107.080475,95.998482 106.720337,95.932449 
	C106.242119,96.276421 106.124031,96.686432 106.005272,97.049759 
	C106.004601,97.003067 106.097992,97.002975 105.740952,96.935005 
	C105.256378,97.276688 105.128845,97.686333 105.000092,98.047745 
	C104.998863,97.999504 105.095337,97.996788 104.681595,97.944763 
	C103.713287,98.510292 103.158714,99.127846 102.304039,99.569153 
	C98.685669,96.022430 95.367401,92.651955 92.411667,88.989700 
	C92.932205,88.132484 93.090218,87.567047 93.493057,86.794739 
	C96.826607,83.659050 99.915329,80.730240 103.245293,77.572670 
	C99.102310,73.678238 95.498489,70.290634 91.805878,66.587608 
	C87.496780,62.536182 83.276489,58.800182 78.995872,54.715538 
	C73.869774,46.521713 73.133835,46.446999 66.680878,52.929886 
	C59.872875,59.769474 53.032982,66.577324 46.214298,73.406303 
	C42.306774,77.319725 42.425434,78.531387 46.341694,82.678589 
	C54.543587,91.364159 62.639076,100.150200 71.227180,109.377304 
	C74.583534,105.658081 76.766884,103.238678 79.244987,101.009941 
	C83.165237,104.789780 86.790749,108.378952 90.416245,111.968124 
z"/>
<path fill="#0B457D" opacity="1.000000" stroke="none" 
	d="
M223.084045,67.973602 
	C226.549866,71.045273 230.015701,74.116936 233.104416,76.854378 
	C215.369919,94.582855 198.245956,111.701019 180.439011,129.501923 
	C177.728577,126.771782 174.305130,123.290359 170.843430,119.847389 
	C168.231003,117.249084 165.569611,114.699997 162.560989,111.748970 
	C158.121094,107.606682 154.050232,103.844421 149.930573,99.732246 
	C148.228241,97.645546 146.588120,95.895744 144.918488,94.174599 
	C141.037964,90.174362 137.355743,85.947243 133.189896,82.268768 
	C129.571411,79.073639 129.100494,77.436081 132.377090,74.057266 
	C138.242706,68.008659 144.136505,61.987392 150.364975,56.036331 
	C155.381622,59.052399 159.944504,62.081203 160.856262,68.131691 
	C157.492783,71.234268 154.458893,74.235718 149.779373,78.865181 
	C152.999222,81.281258 156.029160,83.554825 158.990524,86.200584 
	C159.961838,87.161186 161.001709,87.749596 162.015656,88.670837 
	C166.052933,93.058449 170.116165,97.113228 174.292572,101.464432 
	C176.422241,103.932770 178.438766,106.104691 180.266098,108.072838 
	C190.889145,97.366562 201.019836,87.156494 211.340668,76.754799 
	C203.867401,69.328537 196.085220,61.575302 188.280243,53.845123 
	C180.628647,46.266895 182.436935,46.116112 174.584625,53.891285 
	C174.166321,53.952290 174.003082,54.000729 173.507721,53.974083 
	C169.811584,50.272533 166.447571,46.646072 163.083572,43.019608 
	C168.623474,37.127003 174.163376,31.234402 180.157394,24.858786 
	C184.664185,28.952930 188.472397,32.191517 192.027451,35.687531 
	C199.657883,43.191261 207.157730,50.827782 214.895630,59.042725 
	C216.715927,61.203186 218.351624,62.730858 219.991425,64.607971 
	C221.025040,65.962799 222.054535,66.968201 223.084045,67.973602 
z"/>
<path fill="#FBBB1C" opacity="1.000000" stroke="none" 
	d="
M149.979385,100.082161 
	C154.050232,103.844421 158.121094,107.606682 162.225632,111.736839 
	C153.669464,120.748260 145.044220,129.357071 136.512421,138.057526 
	C134.105560,140.511963 131.922089,143.193176 129.728088,145.846390 
	C127.608910,148.409119 126.463974,148.442657 123.843414,145.663406 
	C113.132439,134.303864 101.918533,123.418518 90.653046,112.163338 
	C86.790749,108.378952 83.165237,104.789780 79.112625,100.704033 
	C71.232353,92.922005 63.779190,85.636551 55.404678,77.450478 
	C63.804131,69.500359 71.430168,62.282276 79.056198,55.064186 
	C83.276489,58.800182 87.496780,62.536182 91.505264,66.733864 
	C88.476044,70.181763 85.658630,73.167976 82.508553,76.172134 
	C81.793129,76.619728 81.410362,77.049377 81.027596,77.479019 
	C81.379120,77.642876 81.730644,77.806732 82.048019,77.980057 
	C82.013870,77.989540 82.035797,77.922134 81.919777,78.297119 
	C82.227684,78.766617 82.651604,78.861130 83.041748,78.973763 
	C83.007957,78.991882 83.043030,78.923698 82.905441,79.296616 
	C83.203979,79.765213 83.640114,79.860886 84.042068,79.974411 
	C84.007889,79.992264 84.045097,79.924721 83.898376,80.291428 
	C84.193741,80.758957 84.635826,80.859779 85.043983,80.975311 
	C85.010048,80.990021 85.039886,80.922333 84.919586,81.288780 
	C85.225410,81.756844 85.651527,81.858467 86.043770,81.975098 
	C86.009895,81.990112 86.039864,81.922333 85.919540,82.288910 
	C86.225349,82.757019 86.651489,82.858551 87.043793,82.975006 
	C87.009972,82.989944 87.039352,82.922081 86.919113,83.299026 
	C87.224228,83.768715 87.649582,83.861450 88.041107,83.973396 
	C88.007271,83.992607 88.044502,83.924271 87.900558,84.299438 
	C88.196312,84.768234 88.635994,84.861877 89.041504,84.974167 
	C89.007317,84.992813 89.045998,84.925217 88.895309,85.291527 
	C89.189049,85.758949 89.633461,85.860062 90.043999,85.975571 
	C90.010117,85.989967 90.039421,85.922417 89.920013,86.288383 
	C90.226212,86.756516 90.651825,86.858688 91.038086,86.977394 
	C90.998741,86.993935 91.071869,86.948280 90.819839,87.153900 
	C91.061584,88.000175 91.555359,88.640823 92.049126,89.281479 
	C95.367401,92.651955 98.685669,96.022430 102.470490,99.859810 
	C103.644157,100.527885 104.351273,100.729065 105.032166,100.965248 
	C105.005951,101.000244 105.041573,100.920738 104.915443,101.289871 
	C105.219292,101.758812 105.649277,101.858612 106.044907,101.973923 
	C106.010551,101.989433 106.041504,101.920708 105.915482,102.290100 
	C106.219360,102.759117 106.649277,102.858749 107.044922,102.973808 
	C107.010651,102.989235 107.040909,102.920425 106.914810,103.301430 
	C107.217918,103.772270 107.647133,103.862106 108.041931,103.972137 
	C108.007530,103.992340 108.046494,103.922707 107.894653,104.301300 
	C108.187630,104.771080 108.632462,104.862274 109.042435,104.973007 
	C109.007584,104.992546 109.048271,104.923775 108.888672,105.292389 
	C109.179291,105.760475 109.629509,105.859947 110.045326,105.974304 
	C110.010925,105.989182 110.041245,105.920624 109.916321,106.289200 
	C110.220726,106.758102 110.650055,106.858421 111.045044,106.973991 
	C111.010719,106.989243 111.041107,106.920540 110.915756,107.293839 
	C111.219704,107.763390 111.648994,107.859657 112.043915,107.973129 
	C112.009544,107.990341 112.043251,107.921234 111.905914,108.304092 
	C112.204384,108.775108 112.640198,108.863266 113.041565,108.972099 
	C113.007133,108.992775 113.047226,108.923164 112.890533,109.303535 
	C113.181503,109.773514 113.629166,109.863121 114.041946,109.972878 
	C114.007072,109.993034 114.049034,109.924263 113.884232,110.295090 
	C114.172699,110.763344 114.625969,110.860786 115.044815,110.973953 
	C115.010391,110.989677 115.042259,110.921028 114.912094,111.291672 
	C115.214279,111.760773 115.646614,111.859238 116.044571,111.973755 
	C116.010193,111.989822 116.042313,111.921051 115.911278,112.293839 
	C116.212990,112.763229 116.645744,112.859833 117.044144,112.973251 
	C117.009804,112.990059 117.042679,112.921013 116.908142,113.304077 
	C117.207718,113.775131 117.641823,113.863121 118.041473,113.972008 
	C118.007019,113.992912 118.047523,113.923218 117.889709,114.303986 
	C118.180191,114.773972 118.628487,114.863205 119.041878,114.972786 
	C119.006973,114.993134 119.049294,114.924294 118.883575,115.295448 
	C119.171623,115.763741 119.625397,115.860878 120.044724,115.973923 
	C120.010292,115.989822 120.042587,115.921181 119.910583,116.292572 
	C120.211975,116.761757 120.645386,116.859566 121.044418,116.973663 
	C121.010048,116.989952 121.042549,116.921173 120.910400,117.293617 
	C121.211670,117.763000 121.645088,117.859940 122.044220,117.973419 
	C122.009926,117.989944 122.042229,117.920998 121.908813,118.304703 
	C122.208855,118.775841 122.642311,118.863281 123.041290,118.971893 
	C123.006821,118.993057 123.047798,118.923302 122.888611,119.304565 
	C123.178513,119.774551 123.627602,119.863258 124.041710,119.972672 
	C124.006729,119.993362 124.049889,119.924477 123.881508,120.296326 
	C124.168434,120.764580 124.623734,120.860985 125.044525,120.973740 
	C125.010010,120.990105 125.043404,120.921394 124.908325,121.292984 
	C125.208435,121.762077 125.643631,121.859566 126.041336,121.975449 
	C126.003845,121.993843 126.059822,121.931847 125.837387,122.245560 
	C126.598228,122.400604 127.581505,122.241943 128.744293,121.836334 
	C130.673737,119.805458 132.423676,118.021530 134.492737,116.121765 
	C134.859909,115.648232 134.907974,115.290535 134.973877,114.963623 
	C134.991714,114.994423 134.924591,114.970749 135.290009,115.079636 
	C135.758621,114.766617 135.861816,114.344711 135.977325,113.956253 
	C135.989624,113.989693 135.922668,113.965279 136.287811,114.079742 
	C136.756592,113.770363 136.860229,113.346512 136.977036,112.956268 
	C136.990219,112.989868 136.923447,112.962418 137.285217,113.086868 
	C137.753281,112.781418 137.859573,112.351517 137.977402,111.955261 
	C137.988937,111.988907 137.921631,111.965836 138.281677,112.068741 
	C138.749756,111.754974 138.857803,111.338303 138.977386,110.955276 
	C138.988922,110.988930 138.921616,110.965851 139.289185,111.070404 
	C139.758682,110.757782 139.860626,110.340607 139.976196,109.956818 
	C139.989853,109.990196 139.922638,109.964020 140.287231,110.078598 
	C140.756348,109.769661 140.860886,109.346146 140.977509,108.956100 
	C140.989578,108.989563 140.922638,108.965416 141.287308,109.079109 
	C141.755997,108.769394 141.860016,108.345985 141.977112,107.956200 
	C141.990173,107.989822 141.923386,107.962532 142.286835,108.086899 
	C142.755096,107.781517 142.859879,107.351761 142.976974,106.955635 
	C142.989288,106.989265 142.922058,106.964546 143.284378,107.073318 
	C143.752655,106.762085 143.858597,106.342072 143.976913,105.955673 
	C143.989288,105.989296 143.922028,105.964600 144.291855,106.074890 
	C144.761551,105.764717 144.861435,105.344254 144.975769,104.957169 
	C144.990250,104.990562 144.922989,104.962761 145.289810,105.082870 
	C145.759125,104.776314 145.861618,104.349632 145.977005,103.956421 
	C145.989899,103.989883 145.922958,103.964104 146.290009,104.083649 
	C146.758926,103.776451 146.860794,103.349709 146.976624,102.956619 
	C146.990585,102.990265 146.923782,102.961205 147.287567,103.090988 
	C147.755768,102.787842 147.860153,102.354919 147.980408,101.957596 
	C147.996277,101.993195 147.935287,101.944656 148.235199,102.151886 
	C149.001984,101.875969 149.468842,101.392815 149.952789,100.703110 
	C149.969864,100.496559 149.979385,100.082161 149.979385,100.082161 
z"/>
<path fill="#FBBB1A" opacity="1.000000" stroke="none" 
	d="
M161.185837,68.030563 
	C159.944504,62.081203 155.381622,59.052399 150.347015,55.678711 
	C142.205597,47.669220 134.428589,40.098976 125.718994,31.620937 
	C118.478859,39.183754 110.798935,47.205956 103.119019,55.228157 
	C99.064056,51.380852 95.009094,47.533546 91.067490,43.342846 
	C101.765694,32.500244 112.350533,22.001040 123.270073,11.099090 
	C123.914803,10.528777 124.046585,10.270308 124.000130,9.920935 
	C124.000130,9.920935 123.996361,9.991757 124.296364,10.027649 
	C124.723740,9.682596 124.851112,9.301653 124.978485,8.920710 
	C124.978485,8.920710 124.989151,8.989006 125.302490,9.036913 
	C125.733582,8.697307 125.851326,8.309793 125.969078,7.922280 
	C125.969078,7.922281 125.994171,7.990810 126.339577,8.168901 
	C126.955132,8.261458 127.225273,8.175923 127.495422,8.090389 
	C127.495422,8.090389 127.472603,8.065220 127.591873,8.430545 
	C128.164780,8.850243 128.618393,8.904614 129.072021,8.958987 
	C129.072021,8.958987 129.006805,8.990975 128.911072,9.320023 
	C129.235428,9.753590 129.655518,9.858109 130.075623,9.962627 
	C130.075623,9.962627 130.008881,9.991355 129.903656,10.318020 
	C130.224442,10.751158 130.650452,10.857631 131.076447,10.964104 
	C131.076447,10.964103 131.009750,10.990260 130.921997,11.314976 
	C131.248306,11.747818 131.662384,11.855947 132.076447,11.964075 
	C132.076447,11.964076 132.009750,11.990260 131.920288,12.321615 
	C132.245544,12.755796 132.660263,12.858623 133.074966,12.961450 
	C133.074966,12.961450 133.008743,12.991005 132.913879,13.319036 
	C133.237961,13.752939 133.656906,13.858809 134.075836,13.964680 
	C134.075836,13.964679 134.009445,13.990554 133.914124,14.319011 
	C134.237793,14.752650 134.656784,14.857833 135.075760,14.963015 
	C135.075760,14.963015 135.009003,14.991247 134.904755,15.318148 
	C135.225784,15.751349 135.651093,15.857652 136.076385,15.963955 
	C136.076385,15.963955 136.009705,15.990313 135.921326,16.315323 
	C136.247437,16.748219 136.661926,16.856102 137.076401,16.963984 
	C137.076401,16.963984 137.009720,16.990299 136.920410,17.320091 
	C137.245865,17.754036 137.660660,17.858189 138.075439,17.962341 
	C138.075439,17.962341 138.009125,17.990665 137.917877,18.317133 
	C138.243164,18.750797 138.659729,18.857992 139.076279,18.965187 
	C139.076279,18.965187 139.009781,18.990223 138.917877,19.317097 
	C139.242706,19.750538 139.659439,19.857103 140.076157,19.963667 
	C140.076157,19.963667 140.009354,19.990873 139.908966,20.316109 
	C140.231308,20.749147 140.654068,20.856951 141.076813,20.964752 
	C141.076813,20.964750 141.010040,20.989964 140.925507,21.313169 
	C141.252914,21.745853 141.664886,21.855333 142.076843,21.964811 
	C142.076843,21.964811 142.010071,21.989960 141.923782,22.319532 
	C142.250137,22.753479 142.662766,22.857851 143.075409,22.962223 
	C143.075409,22.962223 143.009109,22.990685 142.917130,23.317469 
	C143.242172,23.751181 143.659210,23.858109 144.076233,23.965038 
	C144.076233,23.965038 144.009750,23.990273 143.917191,24.317440 
	C144.241791,24.750912 144.658951,24.857216 145.076111,24.963520 
	C145.076111,24.963520 145.009308,24.990932 144.908310,25.316418 
	C145.230453,25.749477 145.653610,25.857048 146.076752,25.964619 
	C146.076752,25.964621 146.009995,25.990017 145.924866,26.313488 
	C146.252090,26.746201 146.664444,26.855442 147.076782,26.964684 
	C147.076782,26.964682 147.010010,26.990025 146.923172,27.319647 
	C147.249359,27.753607 147.662384,27.857944 148.075409,27.962280 
	C148.075409,27.962280 148.009109,27.990698 147.917175,28.317450 
	C148.242233,28.751169 148.659225,28.858137 149.076218,28.965107 
	C149.076218,28.965107 149.009735,28.990274 148.917282,29.317417 
	C149.241928,29.750849 149.659042,29.857138 150.076141,29.963425 
	C150.076141,29.963425 150.001709,29.997520 149.792297,30.228287 
	C150.001740,30.987589 150.420609,31.516127 150.839462,32.044670 
	C154.697037,35.650303 158.554626,39.255936 162.747894,42.940590 
	C166.447571,46.646072 169.811584,50.272533 173.638641,54.251015 
	C174.427307,54.727451 174.752945,54.851868 175.045029,54.983624 
	C175.011490,54.990963 175.029129,54.924606 174.925812,55.281921 
	C175.240829,55.748318 175.659134,55.857403 176.044006,55.977947 
	C176.010559,55.989410 176.033447,55.922504 175.940140,56.277855 
	C176.257050,56.744316 176.667282,56.855427 177.044037,56.977982 
	C177.010590,56.989426 177.033493,56.922523 176.938354,57.285301 
	C177.254089,57.753078 177.664948,57.858078 178.042603,57.976681 
	C178.009415,57.990284 178.035492,57.923443 177.930389,58.283550 
	C178.242386,58.751133 178.659470,58.858608 179.043274,58.978035 
	C179.010010,58.989986 179.033920,58.923447 178.929535,59.283768 
	C179.242264,59.750835 179.659409,59.857582 180.043106,59.977486 
	C180.009674,59.990635 180.037170,59.924248 179.921158,60.284321 
	C180.229065,60.751057 180.653000,60.857719 181.043503,60.977161 
	C181.010086,60.989941 181.035675,60.923115 180.933472,61.281906 
	C181.246490,61.748577 181.661697,61.856453 182.043488,61.977135 
	C182.010071,61.989948 182.035675,61.923107 181.931870,62.288849 
	C182.243805,62.756828 182.659561,62.859066 183.042114,62.976089 
	C183.008926,62.990875 183.037369,62.924011 182.924194,63.287762 
	C183.232681,63.755527 183.654358,63.859547 184.042740,63.977051 
	C184.009460,63.990536 184.036407,63.923969 183.922302,64.288094 
	C184.230728,64.755493 184.653259,64.858780 185.042358,64.976685 
	C185.008896,64.991302 185.039368,64.924950 184.914383,65.287262 
	C185.218399,65.754082 185.647400,65.858597 186.039734,65.980423 
	C186.003052,65.997734 186.062241,65.942276 185.835083,66.210266 
	C186.018768,67.010651 186.429596,67.543053 187.029633,68.376465 
	C189.804276,71.013565 192.726273,73.092522 194.806137,75.814842 
	C195.615494,76.874222 195.217957,80.038879 194.188690,81.126953 
	C187.703918,87.982307 180.886749,94.523201 174.179398,101.167999 
	C170.116165,97.113228 166.052933,93.058449 162.349243,88.514877 
	C163.125824,87.326355 163.542892,86.626640 163.974625,85.959114 
	C163.989288,85.991302 163.921280,85.971848 164.287292,86.065247 
	C164.757080,85.746582 164.860855,85.334511 164.976898,84.955902 
	C164.989151,84.989357 164.921768,84.966141 165.286316,85.078178 
	C165.755951,84.767296 165.861069,84.344368 165.977478,83.955109 
	C165.988770,83.988777 165.921432,83.966194 166.286026,84.078262 
	C166.755402,83.767365 166.860168,83.344391 166.977203,82.955215 
	C166.989456,82.989021 166.922333,82.963196 167.286072,83.087318 
	C167.755051,82.781288 167.860321,82.351128 167.977051,81.954758 
	C167.988541,81.988548 167.920959,81.965599 168.283218,82.072914 
	C168.752182,81.760475 168.858887,81.340721 168.977051,80.954758 
	C168.988541,80.988541 168.920975,80.965576 169.292404,81.075104 
	C169.762970,80.764107 169.862091,80.343582 169.975555,79.956604 
	C169.989868,79.990166 169.922302,79.962593 170.291580,80.087357 
	C170.761795,79.782181 170.862732,79.352242 170.978531,78.957245 
	C170.993393,78.992180 170.929825,78.950638 171.268372,79.151001 
	C171.998154,78.764534 172.389374,78.177696 172.780579,77.590851 
	C172.164093,77.411011 171.547623,77.231171 170.964142,77.025482 
	C170.997162,76.999641 170.942657,77.063072 171.179504,76.756432 
	C170.892380,75.971893 170.368408,75.493996 169.535980,74.901016 
	C166.546967,72.534142 163.866394,70.282349 161.185837,68.030563 
z"/>
<path fill="#174E85" opacity="1.000000" stroke="none" 
	d="
M223.199112,67.635132 
	C222.054535,66.968201 221.025040,65.962799 220.344604,64.349716 
	C220.863174,60.978104 221.032669,58.214169 221.218704,55.180782 
	C233.241318,55.180782 245.093094,55.180782 256.944885,55.180782 
	C257.311005,58.340240 257.825256,61.494694 257.932343,64.662910 
	C257.957092,65.394974 256.588867,66.174110 255.861633,66.931595 
	C254.894852,65.917709 253.928070,64.903824 253.042480,63.095551 
	C252.720306,61.885361 252.316925,61.469555 251.913559,61.053745 
	C251.913559,61.053741 251.992065,61.004898 252.196854,60.632736 
	C251.908356,60.196796 251.415085,60.133022 250.921799,60.069244 
	C250.921799,60.069248 250.999786,60.001339 251.193390,59.666039 
	C250.896774,59.231846 250.406570,59.132961 249.916367,59.034073 
	C249.916367,59.034073 249.987579,59.019615 249.981735,58.670135 
	C247.412369,58.578407 244.848862,58.836159 242.208679,59.550690 
	C242.121231,70.290405 242.026840,80.574593 242.180984,90.855057 
	C242.207016,92.592125 243.303848,94.313133 243.905945,96.041565 
	C244.806717,96.324814 245.822098,96.435455 246.577744,96.937241 
	C247.425156,97.499947 248.037628,98.416428 248.752319,99.178986 
	C247.903107,99.794220 247.078659,100.896416 246.200409,100.941063 
	C242.228745,101.143013 238.230423,101.225761 234.265778,100.973305 
	C232.538330,100.863297 230.868729,99.844711 229.172867,99.238770 
	C230.687820,98.325081 232.202789,97.411392 234.342941,96.137260 
	C235.362122,95.117363 236.094604,94.460480 236.099640,93.798080 
	C236.183899,82.708023 236.223648,71.616737 236.096786,60.527756 
	C236.087326,59.701481 234.738922,58.890526 234.012955,58.072445 
	C229.204681,57.980686 225.344025,59.080364 224.850662,64.892235 
	C224.779449,65.731140 223.847702,66.496994 223.199112,67.635132 
z"/>
<path fill="#1F5489" opacity="1.000000" stroke="none" 
	d="
M390.969421,84.354721 
	C391.644226,88.754936 390.939178,94.203072 397.272949,94.919426 
	C399.725494,95.196815 402.340759,94.041412 404.881104,93.534676 
	C406.498138,93.212112 408.113647,92.882080 409.808624,93.125580 
	C404.741913,100.666275 400.812714,102.351967 394.723511,100.444092 
	C388.276733,98.424187 383.114258,92.325401 383.024750,85.639610 
	C382.975616,81.967659 383.814758,78.203751 384.757446,74.613686 
	C387.528442,64.061150 401.927277,64.494843 407.724152,69.317352 
	C408.944763,70.332787 409.289001,72.401680 409.925781,74.815842 
	C409.814514,77.895966 409.814514,80.145409 409.814514,82.996849 
	C405.039337,82.996849 400.627869,82.870285 396.229950,83.058922 
	C394.461182,83.134781 392.722046,83.902100 390.969421,84.354721 
M402.895721,73.617630 
	C402.736420,73.312622 402.485779,73.141136 401.776001,72.486649 
	C396.827850,68.922020 394.564514,69.527031 391.094543,75.274651 
	C390.656006,76.635292 390.217468,77.995926 389.718781,79.543167 
	C395.104004,79.543167 399.724060,79.543167 405.387360,79.543167 
	C404.363098,77.225571 403.646606,75.604286 403.016144,73.986954 
	C403.016144,73.986954 403.016998,74.073059 402.895721,73.617630 
z"/>
<path fill="#1B5187" opacity="1.000000" stroke="none" 
	d="
M287.857483,80.943542 
	C287.900604,81.127228 287.943695,81.310913 287.516998,81.801697 
	C281.646942,82.385406 276.241913,82.595940 270.849976,82.986839 
	C269.563751,83.080078 268.321228,83.775505 267.058594,84.193954 
	C267.079620,88.596016 267.431976,93.558228 272.331635,94.621109 
	C275.973328,95.411079 280.143890,93.762917 285.363892,93.017128 
	C284.445496,94.863251 283.962677,96.848831 282.738098,98.119675 
	C277.439972,103.617950 264.710968,101.370773 261.082031,90.955704 
	C261.109802,85.372040 261.053467,80.611671 260.997131,75.851303 
	C261.012787,70.569160 264.601379,67.410141 268.819916,66.512360 
	C278.009979,64.556549 282.977203,66.887337 285.911865,73.785599 
	C286.492767,76.694023 287.175140,78.818779 287.857483,80.943542 
M278.448792,73.201134 
	C276.565063,71.057365 274.483459,68.576820 271.414124,70.450287 
	C268.194824,72.415283 266.825287,75.683662 267.383942,80.071304 
	C269.970856,80.071304 272.411652,80.096062 274.851746,80.066261 
	C280.249908,80.000336 280.867889,79.026192 278.448792,73.201134 
z"/>
<path fill="#1D5388" opacity="1.000000" stroke="none" 
	d="
M325.443298,56.980938 
	C323.912323,56.168102 322.381348,55.355267 320.850372,54.542431 
	C320.963440,53.943062 321.076508,53.343693 321.189575,52.744324 
	C324.550873,52.744324 327.912140,52.744324 332.015015,53.066231 
	C332.875580,56.494328 332.920593,59.605652 333.135529,62.705185 
	C333.328979,65.495255 333.708832,68.272408 334.014465,71.411438 
	C334.036194,72.243202 334.049927,72.718788 334.008667,73.601006 
	C333.661682,80.825294 333.336426,87.642059 333.155029,94.462654 
	C333.143341,94.901421 334.242737,95.369736 334.825256,95.824310 
	C336.109680,96.366653 337.394104,96.908989 339.909027,97.970894 
	C338.289642,99.245422 337.212799,100.805756 336.014069,100.905769 
	C332.066376,101.235146 328.067291,101.167847 324.104614,100.950104 
	C323.063019,100.892868 322.081543,99.740913 321.072479,99.091690 
	C321.955414,97.994560 322.838348,96.897430 324.528107,96.113251 
	C326.016510,94.894226 327.262543,93.371742 327.288513,91.828712 
	C327.464233,81.394859 327.444000,70.955795 327.297791,60.521065 
	C327.281158,59.332600 326.089905,58.160587 325.443298,56.980938 
z"/>
<path fill="#25588C" opacity="1.000000" stroke="none" 
	d="
M314.995697,76.907005 
	C314.015778,76.167198 313.035858,75.427383 312.305725,74.129333 
	C311.953705,72.455315 311.351929,71.339523 310.750153,70.223724 
	C310.750153,70.223724 310.761902,70.349358 310.752563,70.149918 
	C310.476959,70.022552 310.210724,70.094620 309.944489,70.166687 
	C309.786102,70.108589 309.627716,70.050484 309.146362,69.580276 
	C305.660583,66.416428 303.561127,69.113983 301.738037,70.923141 
	C299.852692,72.794090 297.482880,75.064880 300.199036,78.137909 
	C300.475525,81.373627 300.386383,84.692451 301.099335,87.828964 
	C302.982208,96.112625 307.684814,97.903091 314.997803,93.435707 
	C316.026276,92.807449 317.097015,92.248344 318.250610,91.599609 
	C320.178253,95.690239 317.698425,97.572861 315.350739,98.914169 
	C309.923035,102.015213 304.459595,101.845024 299.208038,98.135994 
	C294.998047,95.162628 293.151520,91.003860 292.996399,86.047874 
	C292.785431,79.310196 292.236572,72.391403 299.696106,67.931610 
	C300.905975,67.572266 301.434296,67.230156 301.962646,66.888046 
	C301.962646,66.888046 302.007812,66.965233 302.428772,66.973686 
	C305.928955,66.966377 309.008240,66.950607 312.087494,66.934837 
	C312.087494,66.934837 312.017090,66.963730 312.218750,67.207520 
	C313.308929,67.607117 314.197479,67.762909 315.085999,67.918709 
	C315.085999,67.918709 315.008789,67.956779 315.175842,68.187943 
	C315.920959,68.580399 316.499023,68.741707 317.077118,68.903015 
	C317.077118,68.903008 317.073669,68.983986 317.048950,69.388519 
	C317.044739,71.561005 317.065247,73.328972 317.085754,75.096931 
	C317.085754,75.096931 317.049255,74.988663 316.756287,75.043884 
	C315.974091,75.701744 315.484894,76.304367 314.995697,76.907005 
z"/>
<path fill="#22568B" opacity="1.000000" stroke="none" 
	d="
M432.112701,71.997955 
	C432.112701,71.997955 431.982330,71.625305 431.951904,71.036957 
	C429.862976,67.168480 427.595123,66.482552 424.996948,69.889824 
	C421.982025,73.574287 422.638580,76.793770 426.826660,78.866928 
	C428.716095,79.802231 430.597595,80.753754 432.494537,81.673523 
	C442.318054,86.436623 442.788910,92.704231 433.230713,98.791679 
	C431.785187,98.397247 430.899475,98.210434 430.005127,98.010628 
	C429.996460,97.997627 429.974915,97.974937 429.977112,97.709946 
	C429.976074,97.268318 429.972900,97.091682 429.969727,96.915047 
	C434.800720,90.678726 434.111481,88.991386 426.537170,85.755089 
	C423.619202,84.508324 420.964813,82.313148 418.640289,80.081406 
	C414.413300,76.023193 415.128784,71.523895 420.910156,67.992485 
	C422.419586,67.363144 423.207092,66.742317 423.994598,66.121490 
	C424.167542,66.095352 424.340515,66.069206 425.058472,66.335999 
	C428.759674,67.065834 431.915894,67.502724 435.072113,67.939613 
	C435.072113,67.939613 435.020752,67.991913 435.177063,68.224495 
	C435.910431,68.616348 436.487488,68.775612 437.064575,68.934883 
	C437.064575,68.934883 437.001221,69.000305 436.985596,69.356796 
	C437.364288,70.864471 437.758545,72.015656 438.152832,73.166840 
	C438.152832,73.166840 438.009033,73.598007 437.739685,73.930878 
	C437.225250,74.477417 437.081177,74.745392 437.038116,75.067665 
	C437.038116,75.067665 437.059540,75.009117 436.708130,74.983574 
	C434.942017,73.971336 433.527374,72.984650 432.112701,71.997955 
z"/>
<path fill="#174E85" opacity="1.000000" stroke="none" 
	d="
M445.784973,69.981354 
	C444.613770,69.808655 443.442596,69.635956 440.709320,69.232925 
	C443.118073,67.622444 444.210632,66.891975 446.001892,66.083252 
	C447.870880,63.664509 449.041107,61.324017 450.211365,58.983521 
	C453.398254,58.472790 454.271912,60.054226 453.984222,62.949829 
	C453.701172,65.798752 454.875793,67.253616 458.005005,67.035095 
	C459.235596,66.949173 460.524048,67.691231 461.786133,68.056229 
	C460.473389,68.702385 459.191040,69.425995 457.833557,69.957985 
	C457.260284,70.182663 456.528809,70.003784 455.040619,70.034668 
	C454.056793,77.820908 453.890167,85.580696 453.796539,93.341362 
	C453.793427,93.599289 454.529358,93.866135 454.920807,94.128822 
	C457.471680,95.476532 460.022583,96.824234 462.841858,98.313744 
	C459.755768,102.640732 455.534210,101.054100 451.097717,99.112518 
	C450.186981,98.281471 449.557983,98.174347 448.929016,98.067230 
	C448.929016,98.067230 448.998566,98.003281 449.239624,97.678223 
	C448.945557,94.619049 448.069641,91.899948 447.948303,89.147583 
	C447.715790,83.872643 448.034607,78.574104 447.832031,73.296593 
	C447.788696,72.166985 446.499969,71.085175 445.784973,69.981354 
z"/>
<path fill="#174F85" opacity="1.000000" stroke="none" 
	d="
M366.009552,70.072052 
	C364.807495,69.504807 363.605438,68.937569 361.045441,67.729507 
	C365.505035,67.023102 368.414795,66.562187 371.947388,66.488541 
	C372.790710,74.715454 372.904388,82.560631 373.308807,90.390785 
	C373.406311,92.278694 374.466583,94.116890 375.084106,95.977943 
	C377.027710,96.729012 378.971344,97.480087 382.307159,98.769157 
	C379.437347,99.854340 377.880890,100.866837 376.266602,100.969460 
	C372.295380,101.221916 368.297455,101.040489 364.310425,101.064217 
	C362.068512,101.077560 360.688995,100.489471 362.361328,97.628632 
	C363.899689,96.876183 364.958649,96.392494 366.017639,95.908798 
	C366.017639,95.908798 366.000702,95.994194 366.269653,96.095284 
	C366.786224,95.855774 367.033844,95.515182 367.504333,94.811615 
	C367.817657,87.495552 368.002533,80.541145 367.907196,73.590599 
	C367.890991,72.409294 366.672546,71.244484 366.009552,70.072052 
z"/>
<path fill="#1D5388" opacity="1.000000" stroke="none" 
	d="
M346.081207,74.864723 
	C344.964142,69.620461 341.337952,70.890739 337.480896,71.910904 
	C337.075684,72.113426 336.915222,72.053970 336.969452,71.700104 
	C337.355896,69.978050 337.688141,68.609863 338.020325,67.241684 
	C342.731110,66.679901 347.544769,65.350586 351.505859,69.566734 
	C351.953186,76.668053 352.488220,83.285965 353.249359,89.877769 
	C353.491425,91.974380 354.334991,94.001549 354.903320,96.060501 
	C356.210632,96.546280 357.517914,97.032059 359.286285,97.689178 
	C356.797791,103.365585 352.052673,100.251198 348.232574,99.974365 
	C347.994995,92.517853 348.074066,85.883026 347.852478,79.258263 
	C347.802856,77.775658 346.699432,76.328308 346.081207,74.864723 
z"/>
<path fill="#F0F2F4" opacity="1.000000" stroke="none" 
	d="
M243.937897,95.566772 
	C243.303848,94.313133 242.207016,92.592125 242.180984,90.855057 
	C242.026840,80.574593 242.121231,70.290405 242.536316,59.578850 
	C244.990753,59.109005 247.040909,59.067772 249.091049,59.026543 
	C248.985016,60.306675 248.878983,61.586807 248.728409,63.404579 
	C246.955948,62.663456 245.557373,62.078667 243.969849,61.414875 
	C243.969849,72.694962 243.969849,83.893478 243.937897,95.566772 
z"/>
<path fill="#DAE1E9" opacity="1.000000" stroke="none" 
	d="
M445.866791,70.443527 
	C446.499969,71.085175 447.788696,72.166985 447.832031,73.296593 
	C448.034607,78.574104 447.715790,83.872643 447.948303,89.147583 
	C448.069641,91.899948 448.945557,94.619049 449.212219,97.716766 
	C446.486694,94.160599 442.019257,91.469788 445.473907,85.090263 
	C447.489594,81.367935 445.910431,75.698906 445.866791,70.443527 
z"/>
<path fill="#D3DCE5" opacity="1.000000" stroke="none" 
	d="
M256.859131,54.731178 
	C245.093094,55.180782 233.241318,55.180782 221.218704,55.180782 
	C221.032669,58.214169 220.863174,60.978104 220.340485,64.000290 
	C218.351624,62.730858 216.715927,61.203186 215.071594,59.336544 
	C216.540070,58.997578 218.017151,58.997578 219.717010,58.997578 
	C219.850922,57.356304 219.969223,55.906376 220.101791,54.281578 
	C232.306061,54.281578 244.539719,54.281578 256.859131,54.731178 
z"/>
<path fill="#AFC1D5" opacity="1.000000" stroke="none" 
	d="
M375.054382,95.512543 
	C374.466583,94.116890 373.406311,92.278694 373.308807,90.390785 
	C372.904388,82.560631 372.790710,74.715454 372.363525,66.516029 
	C374.671539,65.474968 375.149323,66.660034 375.116486,68.948059 
	C374.991669,77.646400 375.040619,86.347237 375.054382,95.512543 
z"/>
<path fill="#336394" opacity="1.000000" stroke="none" 
	d="
M372.489685,59.725075 
	C369.306641,59.746174 366.050568,59.840160 366.097992,55.941261 
	C366.114288,54.604630 367.907806,52.359570 369.111298,52.199642 
	C370.662476,51.993507 372.779205,53.103630 374.038361,54.295521 
	C376.183746,56.326324 374.816650,58.151024 372.489685,59.725075 
z"/>
<path fill="#B4C5D7" opacity="1.000000" stroke="none" 
	d="
M234.016800,58.520325 
	C234.738922,58.890526 236.087326,59.701481 236.096786,60.527756 
	C236.223648,71.616737 236.183899,82.708023 236.099640,93.798080 
	C236.094604,94.460480 235.362122,95.117363 234.563187,95.821533 
	C234.436935,91.630310 234.995895,87.390274 234.934265,83.159286 
	C234.816788,75.092865 234.345215,67.031609 234.016800,58.520325 
z"/>
<path fill="#C4D2E0" opacity="1.000000" stroke="none" 
	d="
M354.951782,95.585632 
	C354.334991,94.001549 353.491425,91.974380 353.249359,89.877769 
	C352.488220,83.285965 351.953186,76.668053 351.661285,69.876640 
	C353.013733,72.243027 354.727173,74.742767 354.916840,77.353218 
	C355.344788,83.243324 355.019257,89.188179 354.951782,95.585632 
z"/>
<path fill="#D6DFE9" opacity="1.000000" stroke="none" 
	d="
M346.029053,75.345490 
	C346.699432,76.328308 347.802856,77.775658 347.852478,79.258263 
	C348.074066,85.883026 347.994995,92.517853 348.001678,99.623367 
	C347.304749,98.941414 346.077576,97.799316 346.047516,96.626511 
	C345.869720,89.697052 345.970123,82.760452 346.029053,75.345490 
z"/>
<path fill="#F4F7F9" opacity="1.000000" stroke="none" 
	d="
M366.015991,70.533821 
	C366.672546,71.244484 367.890991,72.409294 367.907196,73.590599 
	C368.002533,80.541145 367.817657,87.495552 367.224976,94.743484 
	C366.532257,95.018913 366.341766,94.999504 366.151306,94.980103 
	C366.108337,86.985268 366.065369,78.990425 366.015991,70.533821 
z"/>
<path fill="#ADBFD2" opacity="1.000000" stroke="none" 
	d="
M334.885742,95.371201 
	C334.242737,95.369736 333.143341,94.901421 333.155029,94.462654 
	C333.336426,87.642059 333.661682,80.825294 334.265533,73.396584 
	C335.356659,72.541679 336.135956,72.297829 336.915222,72.053970 
	C336.915222,72.053970 337.075684,72.113426 337.122589,72.041931 
	C333.721588,76.427589 335.333405,81.642334 335.030609,86.558083 
	C334.859528,89.335938 334.965210,92.130859 334.885742,95.371201 
z"/>
<path fill="#B2C4D6" opacity="1.000000" stroke="none" 
	d="
M454.982971,93.649986 
	C454.529358,93.866135 453.793427,93.599289 453.796539,93.341362 
	C453.890167,85.580696 454.056793,77.820908 454.628235,70.053001 
	C455.044739,77.753731 455.044952,85.462440 454.982971,93.649986 
z"/>
<path fill="#CDD7E3" opacity="1.000000" stroke="none" 
	d="
M334.006531,71.055260 
	C333.708832,68.272408 333.328979,65.495255 333.135529,62.705185 
	C332.920593,59.605652 332.875580,56.494328 332.390747,53.145378 
	C332.903442,52.550488 333.782043,52.198353 334.520508,51.902386 
	C335.056763,57.248981 335.544495,62.111671 336.383087,67.357300 
	C335.824829,68.845245 334.915680,69.950256 334.006531,71.055260 
z"/>
<path fill="#22568B" opacity="1.000000" stroke="none" 
	d="
M424.129395,95.963684 
	C424.447876,96.021500 424.695068,96.186256 425.178436,96.966660 
	C426.982239,97.641884 428.478577,97.808411 429.974915,97.974937 
	C429.974915,97.974937 429.996460,97.997627 429.721436,98.286034 
	C425.895660,98.401604 422.344849,98.228767 418.794067,98.055931 
	C418.794067,98.055931 418.359375,98.024124 418.049622,97.580360 
	C416.791931,94.195076 415.420410,91.179855 419.388855,89.027367 
	C419.630951,89.003014 420.107910,88.906319 420.107910,88.906319 
	C420.107910,88.906319 420.102417,88.939934 420.047638,89.338928 
	C419.841644,92.829781 420.237518,95.558159 424.129395,95.963684 
z"/>
<path fill="#DEE5ED" opacity="1.000000" stroke="none" 
	d="
M325.700745,57.385246 
	C326.089905,58.160587 327.281158,59.332600 327.297791,60.521065 
	C327.444000,70.955795 327.464233,81.394859 327.288513,91.828712 
	C327.262543,93.371742 326.016510,94.894226 324.888794,96.215225 
	C324.959686,94.011948 325.898041,92.025032 325.923462,90.026497 
	C326.060272,79.282440 325.970062,68.535492 325.700745,57.385246 
z"/>
<path fill="#88A4C1" opacity="1.000000" stroke="none" 
	d="
M391.419891,84.201675 
	C392.722046,83.902100 394.461182,83.134781 396.229950,83.058922 
	C400.627869,82.870285 405.039337,82.996849 409.814514,82.996849 
	C409.814514,80.145409 409.814514,77.895966 409.900452,75.181839 
	C410.893921,77.529404 411.801422,80.341652 412.997650,84.048637 
	C405.250122,84.048637 398.560242,84.048637 391.419891,84.201675 
z"/>
<path fill="#E5E9EE" opacity="1.000000" stroke="none" 
	d="
M419.146729,89.051712 
	C415.420410,91.179855 416.791931,94.195076 417.843872,97.508499 
	C413.327698,95.663292 415.328461,91.404068 415.235535,87.972290 
	C415.218811,87.354828 418.295044,86.635483 419.979065,86.069710 
	C420.034729,86.050995 420.481842,87.197441 420.142944,87.996140 
	C419.408539,88.478249 419.277649,88.764977 419.146729,89.051712 
z"/>
<path fill="#326393" opacity="1.000000" stroke="none" 
	d="
M418.987793,98.392036 
	C422.344849,98.228767 425.895660,98.401604 429.730103,98.299034 
	C430.899475,98.210434 431.785187,98.397247 432.882629,98.857239 
	C428.358856,102.382629 423.739197,101.627205 418.987793,98.392036 
z"/>
<path fill="#B2C4D6" opacity="1.000000" stroke="none" 
	d="
M260.621155,76.032974 
	C261.053467,80.611671 261.109802,85.372040 261.064636,90.595581 
	C257.631439,86.260284 258.291718,81.268745 260.621155,76.032974 
z"/>
<path fill="#E5E8EB" opacity="1.000000" stroke="none" 
	d="
M450.075928,58.692211 
	C449.041107,61.324017 447.870880,63.664509 446.325104,65.977867 
	C446.203461,65.552399 446.773041,65.000557 446.664948,64.778275 
	C444.250977,59.814281 444.696167,58.917236 450.075928,58.692211 
z"/>
<path fill="#2D5E90" opacity="1.000000" stroke="none" 
	d="
M300.508362,77.925056 
	C297.482880,75.064880 299.852692,72.794090 301.738037,70.923141 
	C303.561127,69.113983 305.660583,66.416428 308.904907,69.504486 
	C303.749878,69.856087 301.066559,72.520950 300.508362,77.925056 
z"/>
<path fill="#7A99B9" opacity="1.000000" stroke="none" 
	d="
M267.520813,84.123276 
	C268.321228,83.775505 269.563751,83.080078 270.849976,82.986839 
	C276.241913,82.595940 281.646942,82.385406 287.454529,82.077728 
	C286.942932,82.709106 286.041595,83.914650 285.102234,83.945061 
	C279.400635,84.129692 273.690399,84.046410 267.520813,84.123276 
z"/>
<path fill="#BBCBDB" opacity="1.000000" stroke="none" 
	d="
M249.317841,59.024086 
	C247.040909,59.067772 244.990753,59.109005 242.612976,59.122074 
	C244.848862,58.836159 247.412369,58.578407 249.984314,58.706375 
	C249.992722,59.092094 249.544632,59.021633 249.317841,59.024086 
z"/>
<path fill="#3A6897" opacity="1.000000" stroke="none" 
	d="
M432.052917,72.395973 
	C433.527374,72.984650 434.942017,73.971336 436.712891,75.014633 
	C435.914490,75.701462 434.759918,76.331673 433.605347,76.961899 
	C433.067902,75.572601 432.530518,74.183296 432.052917,72.395973 
z"/>
<path fill="#3A6897" opacity="1.000000" stroke="none" 
	d="
M425.402222,69.958481 
	C427.595123,66.482552 429.862976,67.168480 431.936951,70.840141 
	C429.904083,70.830154 427.855804,70.428642 425.402222,69.958481 
z"/>
<path fill="#326393" opacity="1.000000" stroke="none" 
	d="
M423.971344,95.650711 
	C420.237518,95.558159 419.841644,92.829781 420.032166,89.333969 
	C421.318756,91.065918 422.566040,93.201828 423.971344,95.650711 
z"/>
<path fill="#174E85" opacity="1.000000" stroke="none" 
	d="
M334.014465,71.411438 
	C334.915680,69.950256 335.824829,68.845245 336.804962,67.442154 
	C337.069305,67.128738 337.262665,67.113403 337.738159,67.169876 
	C337.688141,68.609863 337.355896,69.978050 336.969452,71.700104 
	C336.135956,72.297829 335.356659,72.541679 334.320526,72.989952 
	C334.049927,72.718788 334.036194,72.243202 334.014465,71.411438 
z"/>
<path fill="#7A99B9" opacity="1.000000" stroke="none" 
	d="
M287.879883,80.547554 
	C287.175140,78.818779 286.492767,76.694023 285.898743,74.136047 
	C286.625488,75.852409 287.263885,78.001991 287.879883,80.547554 
z"/>
<path fill="#3A6897" opacity="1.000000" stroke="none" 
	d="
M434.908325,67.582733 
	C431.915894,67.502724 428.759674,67.065834 425.318787,66.369171 
	C428.270905,66.481552 431.507721,66.853706 434.908325,67.582733 
z"/>
<path fill="#2D5E90" opacity="1.000000" stroke="none" 
	d="
M317.401672,74.926300 
	C317.065247,73.328972 317.044739,71.561005 317.067566,69.352432 
	C319.919678,70.589188 319.614075,72.589851 317.401672,74.926300 
z"/>
<path fill="#2D5E90" opacity="1.000000" stroke="none" 
	d="
M311.828247,66.608185 
	C309.008240,66.950607 305.928955,66.966377 302.389832,66.951706 
	C305.142944,66.708023 308.355957,66.494781 311.828247,66.608185 
z"/>
<path fill="#3A6897" opacity="1.000000" stroke="none" 
	d="
M438.442200,72.990021 
	C437.758545,72.015656 437.364288,70.864471 437.019135,69.325333 
	C437.622681,70.229324 438.177124,71.521263 438.442200,72.990021 
z"/>
<path fill="#2D5E90" opacity="1.000000" stroke="none" 
	d="
M310.679565,70.560242 
	C311.351929,71.339523 311.953705,72.455315 312.311584,73.780624 
	C311.581451,72.959000 311.095215,71.927872 310.679565,70.560242 
z"/>
<path fill="#326393" opacity="1.000000" stroke="none" 
	d="
M429.977112,97.709946 
	C428.478577,97.808411 426.982239,97.641884 425.249390,97.183319 
	C426.390167,96.912140 427.767426,96.933006 429.557190,96.934456 
	C429.972900,97.091682 429.976074,97.268318 429.977112,97.709946 
z"/>
<path fill="#3A6897" opacity="1.000000" stroke="none" 
	d="
M423.683472,66.156723 
	C423.207092,66.742317 422.419586,67.363144 421.282104,67.977463 
	C421.745575,67.377960 422.558990,66.784958 423.683472,66.156723 
z"/>
<path fill="#CCD8E4" opacity="1.000000" stroke="none" 
	d="
M365.616730,95.947563 
	C364.958649,96.392494 363.899689,96.876183 362.453918,97.280716 
	C363.116669,96.796478 364.166260,96.391403 365.616730,95.947563 
z"/>
<path fill="#2D5E90" opacity="1.000000" stroke="none" 
	d="
M314.893494,67.632858 
	C314.197479,67.762909 313.308929,67.607117 312.219086,67.169479 
	C312.912170,67.040764 313.806549,67.193886 314.893494,67.632858 
z"/>
<path fill="#2D5E90" opacity="1.000000" stroke="none" 
	d="
M315.297058,76.899277 
	C315.484894,76.304367 315.974091,75.701744 316.787231,75.092194 
	C316.606873,75.687370 316.102631,76.289467 315.297058,76.899277 
z"/>
<path fill="#FFF1CF" opacity="1.000000" stroke="none" 
	d="
M150.901596,31.718307 
	C150.420609,31.516127 150.001740,30.987589 149.823853,30.202190 
	C150.364471,30.427538 150.664108,30.909744 150.901596,31.718307 
z"/>
<path fill="#DAE1E9" opacity="1.000000" stroke="none" 
	d="
M449.037018,98.376305 
	C449.557983,98.174347 450.186981,98.281471 450.913330,98.777237 
	C450.388824,99.005714 449.766907,98.845551 449.037018,98.376305 
z"/>
<path fill="#3A6897" opacity="1.000000" stroke="none" 
	d="
M436.947205,68.639893 
	C436.487488,68.775612 435.910431,68.616348 435.176270,68.187859 
	C435.622772,68.060730 436.226288,68.202820 436.947205,68.639893 
z"/>
<path fill="#2D5E90" opacity="1.000000" stroke="none" 
	d="
M316.945068,68.619621 
	C316.499023,68.741707 315.920959,68.580399 315.189819,68.147240 
	C315.628876,68.028999 316.220917,68.182617 316.945068,68.619621 
z"/>
<path fill="#BBCBDB" opacity="1.000000" stroke="none" 
	d="
M251.920807,61.388386 
	C252.316925,61.469555 252.720306,61.885361 253.052612,62.705978 
	C252.630356,62.648197 252.279205,62.185608 251.920807,61.388386 
z"/>
<path fill="#2D5E90" opacity="1.000000" stroke="none" 
	d="
M301.632874,66.904068 
	C301.434296,67.230156 300.905975,67.572266 300.041992,67.903702 
	C300.238617,67.568718 300.770844,67.244408 301.632874,66.904068 
z"/>
<path fill="#FFF1CF" opacity="1.000000" stroke="none" 
	d="
M124.708420,8.984667 
	C124.851112,9.301653 124.723740,9.682596 124.261124,10.023684 
	C124.096703,9.672093 124.267532,9.360359 124.708420,8.984667 
z"/>
<path fill="#FFF1CF" opacity="1.000000" stroke="none" 
	d="
M128.948364,8.621925 
	C128.618393,8.904614 128.164780,8.850243 127.574890,8.430389 
	C127.900658,8.138226 128.362686,8.211544 128.948364,8.621925 
z"/>
<path fill="#FFF1CF" opacity="1.000000" stroke="none" 
	d="
M133.020004,12.691792 
	C132.660263,12.858623 132.245544,12.755796 131.933411,12.288280 
	C132.345673,12.089769 132.655365,12.255951 133.020004,12.691792 
z"/>
<path fill="#FFF1CF" opacity="1.000000" stroke="none" 
	d="
M130.016418,9.695558 
	C129.655518,9.858109 129.235428,9.753590 128.925537,9.286711 
	C129.342896,9.092398 129.650040,9.260442 130.016418,9.695558 
z"/>
<path fill="#FFF1CF" opacity="1.000000" stroke="none" 
	d="
M123.773666,9.989967 
	C124.046585,10.270308 123.914803,10.528777 123.386185,10.768759 
	C123.072685,10.473051 123.199219,10.212327 123.773666,9.989967 
z"/>
<path fill="#FFF1CF" opacity="1.000000" stroke="none" 
	d="
M131.021515,10.694462 
	C130.650452,10.857631 130.224442,10.751158 129.918640,10.284918 
	C130.348068,10.091708 130.657333,10.258265 131.021515,10.694462 
z"/>
<path fill="#FFF1CF" opacity="1.000000" stroke="none" 
	d="
M132.021240,11.693974 
	C131.662384,11.855947 131.248306,11.747818 130.935120,11.281639 
	C131.345993,11.090349 131.656006,11.257110 132.021240,11.693974 
z"/>
<path fill="#CCD8E4" opacity="1.000000" stroke="none" 
	d="
M366.066071,95.222916 
	C366.341766,94.999504 366.532257,95.018913 367.002136,95.106445 
	C367.033844,95.515182 366.786224,95.855774 366.227051,96.086319 
	C365.937286,95.806099 365.959076,95.635918 366.066071,95.222916 
z"/>
<path fill="#FFF1CF" opacity="1.000000" stroke="none" 
	d="
M138.020264,17.692642 
	C137.660660,17.858189 137.245865,17.754036 136.933563,17.286745 
	C137.345703,17.090054 137.655396,17.256498 138.020264,17.692642 
z"/>
<path fill="#FFF1CF" opacity="1.000000" stroke="none" 
	d="
M127.293259,7.855185 
	C127.225273,8.175923 126.955132,8.261458 126.308304,8.150095 
	C126.318123,7.842125 126.704605,7.731053 127.293259,7.855185 
z"/>
<path fill="#FFF1CF" opacity="1.000000" stroke="none" 
	d="
M125.701462,7.986603 
	C125.851326,8.309793 125.733582,8.697307 125.268379,9.031340 
	C125.091896,8.668881 125.262871,8.359903 125.701462,7.986603 
z"/>
<path fill="#FFF1CF" opacity="1.000000" stroke="none" 
	d="
M144.017365,23.697498 
	C143.659210,23.858109 143.242172,23.751181 142.930801,23.284086 
	C143.343796,23.092600 143.651154,23.261280 144.017365,23.697498 
z"/>
<path fill="#FFF1CF" opacity="1.000000" stroke="none" 
	d="
M145.016907,24.696068 
	C144.658951,24.857216 144.241791,24.750912 143.929825,24.284203 
	C144.342575,24.092070 144.650146,24.260342 145.016907,24.696068 
z"/>
<path fill="#3A6897" opacity="1.000000" stroke="none" 
	d="
M437.285126,74.996399 
	C437.081177,74.745392 437.225250,74.477417 437.671509,74.147675 
	C437.759216,74.329445 437.645691,74.627289 437.285126,74.996399 
z"/>
<path fill="#FFF1CF" opacity="1.000000" stroke="none" 
	d="
M146.021515,25.694851 
	C145.653610,25.857048 145.230453,25.749477 144.922638,25.283272 
	C145.347397,25.091454 145.656845,25.258268 146.021515,25.694851 
z"/>
<path fill="#FFF1CF" opacity="1.000000" stroke="none" 
	d="
M147.021286,26.694500 
	C146.664444,26.855442 146.252090,26.746201 145.937576,26.280109 
	C146.345535,26.090279 146.655655,26.257298 147.021286,26.694500 
z"/>
<path fill="#FFF1CF" opacity="1.000000" stroke="none" 
	d="
M148.020126,27.692520 
	C147.662384,27.857944 147.249359,27.753607 146.935883,27.286274 
	C147.345230,27.089771 147.655045,27.256264 148.020126,27.692520 
z"/>
<path fill="#FFF1CF" opacity="1.000000" stroke="none" 
	d="
M149.017349,28.697556 
	C148.659225,28.858137 148.242233,28.751169 147.930817,28.284069 
	C148.343765,28.092627 148.651123,28.261316 149.017349,28.697556 
z"/>
<path fill="#FFF1CF" opacity="1.000000" stroke="none" 
	d="
M150.016891,29.695988 
	C149.659042,29.857138 149.241928,29.750849 148.929886,29.284185 
	C149.342514,29.092056 149.650070,29.260303 150.016891,29.695988 
z"/>
<path fill="#FFF1CF" opacity="1.000000" stroke="none" 
	d="
M143.020111,22.692455 
	C142.662766,22.857851 142.250137,22.753479 141.936401,22.286160 
	C142.345123,22.089705 142.654968,22.256195 143.020111,22.692455 
z"/>
<path fill="#BBCBDB" opacity="1.000000" stroke="none" 
	d="
M249.954407,59.310272 
	C250.406570,59.132961 250.896774,59.231846 251.157928,59.703781 
	C250.616730,59.913372 250.304581,59.749920 249.954407,59.310272 
z"/>
<path fill="#2D5E90" opacity="1.000000" stroke="none" 
	d="
M310.085999,70.325966 
	C310.210724,70.094620 310.476959,70.022552 310.690125,70.159088 
	C310.637085,70.367699 310.227478,70.485245 310.085999,70.325966 
z"/>
<path fill="#BBCBDB" opacity="1.000000" stroke="none" 
	d="
M250.963501,60.339928 
	C251.415085,60.133022 251.908356,60.196796 252.168457,60.669216 
	C251.625259,60.922112 251.315247,60.766365 250.963501,60.339928 
z"/>
<path fill="#FFF1CF" opacity="1.000000" stroke="none" 
	d="
M135.016525,14.695809 
	C134.656784,14.857833 134.237793,14.752650 133.927094,14.285833 
	C134.342682,14.092334 134.649994,14.260468 135.016525,14.695809 
z"/>
<path fill="#FFF1CF" opacity="1.000000" stroke="none" 
	d="
M136.021301,15.694376 
	C135.651093,15.857652 135.225784,15.751349 134.919495,15.285052 
	C135.347748,15.091637 135.656998,15.258216 136.021301,15.694376 
z"/>
<path fill="#FFF1CF" opacity="1.000000" stroke="none" 
	d="
M137.021057,16.694010 
	C136.661926,16.856102 136.247437,16.748219 135.934525,16.281984 
	C136.345963,16.090435 136.655853,16.257235 137.021057,16.694010 
z"/>
<path fill="#326393" opacity="1.000000" stroke="none" 
	d="
M419.388855,89.027359 
	C419.277649,88.764977 419.408539,88.478249 419.791901,88.196548 
	C420.044373,88.201576 420.082916,88.554062 420.095398,88.730194 
	C420.107910,88.906319 419.630951,89.003014 419.388855,89.027359 
z"/>
<path fill="#FFF1CF" opacity="1.000000" stroke="none" 
	d="
M139.017395,18.697592 
	C138.659729,18.857992 138.243164,18.750797 137.931458,18.283735 
	C138.343704,18.092579 138.651123,18.261288 139.017395,18.697592 
z"/>
<path fill="#FFF1CF" opacity="1.000000" stroke="none" 
	d="
M140.016937,19.696163 
	C139.659439,19.857103 139.242706,19.750538 138.930420,19.283859 
	C139.342484,19.092049 139.650116,19.260353 140.016937,19.696163 
z"/>
<path fill="#FFF1CF" opacity="1.000000" stroke="none" 
	d="
M134.016998,13.697391 
	C133.656906,13.858809 133.237961,13.752939 132.928070,13.285668 
	C133.344131,13.092879 133.651154,13.261490 134.016998,13.697391 
z"/>
<path fill="#FFF1CF" opacity="1.000000" stroke="none" 
	d="
M141.021576,20.694939 
	C140.654068,20.856951 140.231308,20.749147 139.923187,20.282967 
	C140.347305,20.091433 140.656815,20.258280 141.021576,20.694939 
z"/>
<path fill="#FFF1CF" opacity="1.000000" stroke="none" 
	d="
M142.021332,21.694593 
	C141.664886,21.855333 141.252914,21.745853 140.938110,21.279789 
	C141.345444,21.090261 141.655624,21.257318 142.021332,21.694593 
z"/>
<path fill="#000000" opacity="1.000000" stroke="none" 
	d="
M103.294769,55.493782 
	C110.798935,47.205956 118.478859,39.183754 125.718994,31.620937 
	C134.428589,40.098976 142.205597,47.669220 150.000580,55.597080 
	C144.136505,61.987392 138.242706,68.008659 132.377090,74.057266 
	C129.100494,77.436081 129.571411,79.073639 133.189896,82.268768 
	C137.355743,85.947243 141.037964,90.174362 144.918488,94.174599 
	C146.588120,95.895744 148.228241,97.645546 149.930573,99.732246 
	C149.979385,100.082161 149.969864,100.496559 149.637955,100.753647 
	C148.849121,101.322044 148.392212,101.633347 147.935287,101.944656 
	C147.935287,101.944656 147.996277,101.993195 147.711670,102.014503 
	C147.259293,102.344276 147.091537,102.652740 146.923782,102.961205 
	C146.923782,102.961205 146.990585,102.990265 146.710281,103.017349 
	C146.260971,103.350983 146.091965,103.657547 145.922958,103.964104 
	C145.922958,103.964104 145.989899,103.989883 145.710556,104.016800 
	C145.261795,104.350060 145.092392,104.656410 144.922989,104.962761 
	C144.922989,104.962761 144.990250,104.990562 144.707123,105.014229 
	C144.256668,105.346794 144.089340,105.655701 143.922028,105.964600 
	C143.922028,105.964600 143.989288,105.989296 143.707703,106.012985 
	C143.258102,106.345963 143.090088,106.655258 142.922058,106.964554 
	C142.922058,106.964546 142.989288,106.989265 142.708069,107.012741 
	C142.259033,107.344986 142.091217,107.653763 141.923386,107.962532 
	C141.923386,107.962532 141.990173,107.989822 141.710449,108.017227 
	C141.261353,108.351555 141.091995,108.658485 140.922638,108.965416 
	C140.922638,108.965416 140.989578,108.989563 140.710770,109.016739 
	C140.262192,109.350616 140.092422,109.657318 139.922638,109.964020 
	C139.922638,109.964020 139.989853,109.990196 139.707306,110.014206 
	C139.257034,110.347427 139.089325,110.656639 138.921616,110.965851 
	C138.921616,110.965851 138.988922,110.988930 138.707901,111.012939 
	C138.258453,111.346581 138.090042,111.656204 137.921631,111.965836 
	C137.921631,111.965836 137.988937,111.988907 137.708466,112.012566 
	C137.259796,112.344955 137.091629,112.653687 136.923447,112.962418 
	C136.923447,112.962418 136.990219,112.989868 136.710449,113.017296 
	C136.261353,113.351578 136.092010,113.658424 135.922668,113.965279 
	C135.922668,113.965279 135.989624,113.989693 135.709808,114.017517 
	C135.261536,114.353806 135.093063,114.662277 134.924591,114.970749 
	C134.924591,114.970749 134.991714,114.994423 134.682312,115.054253 
	C134.306473,115.488586 134.240051,115.863091 134.173615,116.237595 
	C132.423676,118.021530 130.673737,119.805458 128.327042,121.786110 
	C127.173470,121.965836 126.616646,121.948845 126.059822,121.931847 
	C126.059822,121.931847 126.003845,121.993843 125.986168,121.706848 
	C125.660126,121.253700 125.351768,121.087547 125.043404,120.921394 
	C125.043404,120.921394 125.010010,120.990105 124.989899,120.706146 
	C124.663147,120.256287 124.356522,120.090385 124.049889,119.924477 
	C124.049889,119.924477 124.006729,119.993362 123.986427,119.706123 
	C123.660019,119.253693 123.353905,119.088493 123.047798,118.923302 
	C123.047798,118.923302 123.006821,118.993057 122.985657,118.704697 
	C122.657074,118.251221 122.349648,118.086113 122.042229,117.920998 
	C122.042229,117.920998 122.009926,117.989944 121.988556,117.705063 
	C121.658981,117.253845 121.350761,117.087509 121.042549,116.921173 
	C121.042549,116.921173 121.010048,116.989952 120.988800,116.705170 
	C120.659233,116.253983 120.350906,116.087585 120.042587,115.921181 
	C120.042587,115.921181 120.010292,115.989822 119.989700,115.706383 
	C119.662498,115.256729 119.355896,115.090508 119.049294,114.924294 
	C119.049294,114.924294 119.006973,114.993134 118.986664,114.706070 
	C118.660072,114.253746 118.353798,114.088478 118.047523,113.923218 
	C118.047523,113.923218 118.007019,113.992912 117.985931,113.704765 
	C117.657463,113.251411 117.350067,113.086212 117.042679,112.921013 
	C117.042679,112.921013 117.009804,112.990059 116.988426,112.704926 
	C116.658806,112.253548 116.350555,112.087303 116.042313,111.921051 
	C116.042313,111.921051 116.010193,111.989822 115.988907,111.705154 
	C115.659172,111.253998 115.350716,111.087509 115.042259,110.921028 
	C115.042259,110.921028 115.010391,110.989677 114.989761,110.706329 
	C114.662430,110.256744 114.355736,110.090500 114.049034,109.924263 
	C114.049034,109.924263 114.007072,109.993034 113.986717,109.706078 
	C113.659981,109.253807 113.353600,109.088486 113.047226,108.923164 
	C113.047226,108.923164 113.007133,108.992775 112.986069,108.704910 
	C112.657745,108.251778 112.350502,108.086510 112.043251,107.921234 
	C112.043251,107.921234 112.009544,107.990341 111.987991,107.704773 
	C111.657997,107.252983 111.349548,107.086761 111.041107,106.920540 
	C111.041107,106.920540 111.010719,106.989243 110.989136,106.705124 
	C110.658791,106.254211 110.350014,106.087418 110.041245,105.920624 
	C110.041245,105.920624 110.010925,105.989182 109.990013,105.706451 
	C109.662155,105.257065 109.355217,105.090416 109.048271,104.923775 
	C109.048271,104.923775 109.007584,104.992546 108.986687,104.706192 
	C108.659355,104.254135 108.352928,104.088417 108.046494,103.922707 
	C108.046494,103.922707 108.007530,103.992340 107.986015,103.704590 
	C107.656639,103.251358 107.348778,103.085892 107.040909,102.920425 
	C107.040909,102.920425 107.010651,102.989235 106.989044,102.705055 
	C106.658791,102.254150 106.350151,102.087425 106.041504,101.920708 
	C106.041504,101.920708 106.010551,101.989433 105.989189,101.705063 
	C105.659073,101.254044 105.350319,101.087395 105.041573,100.920746 
	C105.041573,100.920738 105.005951,101.000244 105.023209,100.598610 
	C105.058762,99.463577 105.077049,98.730186 105.095337,97.996788 
	C105.095337,97.996788 104.998863,97.999504 105.266449,97.964577 
	C105.722023,97.620758 105.910004,97.311867 106.097992,97.002975 
	C106.097992,97.002975 106.004601,97.003067 106.276886,96.974701 
	C106.726265,96.630386 106.903374,96.314438 107.080475,95.998482 
	C107.080475,95.998482 106.970459,95.952621 107.115784,95.917816 
	C107.504166,95.768867 107.686638,95.592171 107.808502,95.352921 
	C113.168251,89.704948 118.528000,84.056976 124.537544,77.724274 
	C117.515778,70.403244 110.493149,63.081329 103.294769,55.493782 
z"/>
<path fill="#000000" opacity="1.000000" stroke="none" 
	d="
M78.995880,54.715546 
	C71.430168,62.282276 63.804131,69.500359 55.404678,77.450478 
	C63.779190,85.636551 71.232353,92.922005 78.817879,100.513374 
	C76.766884,103.238678 74.583534,105.658081 71.227180,109.377304 
	C62.639076,100.150200 54.543587,91.364159 46.341694,82.678589 
	C42.425434,78.531387 42.306774,77.319725 46.214298,73.406303 
	C53.032982,66.577324 59.872875,59.769474 66.680878,52.929886 
	C73.133835,46.446999 73.869774,46.521713 78.995880,54.715546 
z"/>
<path fill="#000000" opacity="1.000000" stroke="none" 
	d="
M82.841217,76.154198 
	C85.658630,73.167976 88.476044,70.181763 91.594070,67.049286 
	C95.498489,70.290634 99.102310,73.678238 103.245293,77.572670 
	C99.915329,80.730240 96.826607,83.659050 93.128113,86.778885 
	C92.036179,86.962692 91.554024,86.955482 91.071869,86.948273 
	C91.071869,86.948280 90.998741,86.993935 90.982018,86.708641 
	C90.656670,86.256371 90.348045,86.089394 90.039421,85.922417 
	C90.039421,85.922417 90.010117,85.989967 89.988464,85.707771 
	C89.659882,85.258789 89.352943,85.092003 89.045998,84.925217 
	C89.045998,84.925217 89.007317,84.992813 88.985703,84.707268 
	C88.657562,84.255905 88.351028,84.090088 88.044502,83.924271 
	C88.044502,83.924271 88.007271,83.992607 87.984962,83.705887 
	C87.654884,83.253471 87.347122,83.087776 87.039352,82.922081 
	C87.039352,82.922081 87.009972,82.989944 86.987656,82.706421 
	C86.656845,82.256042 86.348358,82.089188 86.039864,81.922333 
	C86.039864,81.922333 86.009895,81.990112 85.987747,81.706421 
	C85.657021,81.255936 85.348457,81.089134 85.039886,80.922333 
	C85.039886,80.922333 85.010048,80.990021 84.988464,80.707344 
	C84.659615,80.258018 84.352356,80.091370 84.045097,79.924721 
	C84.045097,79.924721 84.007889,79.992264 83.985344,79.707581 
	C83.656212,79.256500 83.349617,79.090103 83.043030,78.923698 
	C83.043030,78.923698 83.007957,78.991882 82.984406,78.706055 
	C82.652504,78.254196 82.344154,78.088165 82.035797,77.922134 
	C82.035797,77.922134 82.013870,77.989540 82.043625,77.716560 
	C82.329323,77.013786 82.585274,76.583992 82.841217,76.154198 
z"/>
<path fill="#F2EDDD" opacity="1.000000" stroke="none" 
	d="
M104.681595,97.944763 
	C105.077049,98.730186 105.058762,99.463577 105.049423,100.563614 
	C104.351273,100.729065 103.644157,100.527885 102.770599,100.036049 
	C103.158714,99.127846 103.713287,98.510292 104.681595,97.944763 
z"/>
<path fill="#F8EFD7" opacity="1.000000" stroke="none" 
	d="
M90.819839,87.153900 
	C91.554024,86.955482 92.036179,86.962692 92.883286,86.985748 
	C93.090218,87.567047 92.932205,88.132484 92.411667,88.989700 
	C91.555359,88.640823 91.061584,88.000175 90.819839,87.153900 
z"/>
<path fill="#F2EDDD" opacity="1.000000" stroke="none" 
	d="
M105.740952,96.935005 
	C105.910004,97.311867 105.722023,97.620758 105.267677,98.012817 
	C105.128845,97.686333 105.256378,97.276688 105.740952,96.935005 
z"/>
<path fill="#F2EDDD" opacity="1.000000" stroke="none" 
	d="
M106.720345,95.932449 
	C106.903374,96.314438 106.726265,96.630386 106.277557,97.021393 
	C106.124031,96.686432 106.242119,96.276421 106.720345,95.932449 
z"/>
<path fill="#F2EDDD" opacity="1.000000" stroke="none" 
	d="
M107.626022,95.427353 
	C107.686638,95.592171 107.504166,95.768867 107.087143,95.970078 
	C107.205406,95.981911 107.382187,95.796783 107.626022,95.427353 
z"/>
<path fill="#000000" opacity="1.000000" stroke="none" 
	d="
M174.292572,101.464424 
	C180.886749,94.523201 187.703918,87.982307 194.188690,81.126953 
	C195.217957,80.038879 195.615494,76.874222 194.806137,75.814842 
	C192.726273,73.092522 189.804276,71.013565 187.091278,68.045097 
	C186.663208,66.922569 186.362732,66.432426 186.062241,65.942276 
	C186.062241,65.942276 186.003052,65.997734 185.984680,65.711121 
	C185.657333,65.257988 185.348343,65.091469 185.039368,64.924942 
	C185.039368,64.924950 185.008896,64.991302 184.983398,64.709625 
	C184.650742,64.259956 184.343582,64.091965 184.036407,63.923969 
	C184.036407,63.923969 184.009460,63.990536 183.984039,63.709846 
	C183.651535,63.260773 183.344452,63.092392 183.037369,62.924011 
	C183.037369,62.924011 183.008926,62.990875 182.986542,62.706772 
	C182.654648,62.256145 182.345169,62.089626 182.035675,61.923107 
	C182.035675,61.923107 182.010071,61.989948 181.987671,61.707291 
	C181.655411,61.257462 181.345551,61.090286 181.035675,60.923115 
	C181.035675,60.923115 181.010086,60.989941 180.987854,60.707550 
	C180.656128,60.258186 180.346649,60.091217 180.037170,59.924248 
	C180.037170,59.924248 180.009674,59.990635 179.983017,59.710285 
	C179.648880,59.261105 179.341400,59.092278 179.033920,58.923447 
	C179.033920,58.923447 179.010010,58.989986 178.983612,58.710705 
	C178.649979,58.262096 178.342743,58.092770 178.035492,57.923443 
	C178.035492,57.923443 178.009415,57.990284 177.986450,57.707001 
	C177.653473,57.256653 177.343491,57.089588 177.033493,56.922523 
	C177.033493,56.922523 177.010590,56.989426 176.987656,56.707691 
	C176.654297,56.258137 176.343872,56.090321 176.033447,55.922504 
	C176.033447,55.922504 176.010559,55.989410 175.987213,55.707127 
	C175.652298,55.258099 175.340714,55.091351 175.029129,54.924606 
	C175.029129,54.924606 175.011490,54.990963 174.981491,54.710087 
	C174.914230,54.245716 174.876968,54.062218 174.839706,53.878716 
	C182.436935,46.116112 180.628647,46.266895 188.280243,53.845123 
	C196.085220,61.575302 203.867401,69.328537 211.340668,76.754799 
	C201.019836,87.156494 190.889145,97.366562 180.266098,108.072838 
	C178.438766,106.104691 176.422241,103.932770 174.292572,101.464424 
z"/>
<path fill="#000000" opacity="1.000000" stroke="none" 
	d="
M160.856262,68.131691 
	C163.866394,70.282349 166.546967,72.534142 169.612274,75.216957 
	C170.312225,76.119682 170.627441,76.591377 170.942657,77.063072 
	C170.942657,77.063072 170.997162,76.999641 170.985352,77.341705 
	C170.958969,78.106064 170.944397,78.528351 170.929825,78.950638 
	C170.929825,78.950638 170.993393,78.992180 170.711929,79.017563 
	C170.261078,79.349495 170.091690,79.656044 169.922302,79.962593 
	C169.922302,79.962593 169.989868,79.990166 169.706711,80.014023 
	C169.256027,80.347107 169.088501,80.656342 168.920975,80.965576 
	C168.920975,80.965576 168.988541,80.988541 168.707458,81.012405 
	C168.257889,81.346039 168.089432,81.655823 167.920959,81.965599 
	C167.920959,81.965599 167.988541,81.988548 167.707825,82.012177 
	C167.258850,82.344933 167.090591,82.654060 166.922333,82.963196 
	C166.922333,82.963196 166.989456,82.989021 166.710205,83.016594 
	C166.261108,83.351509 166.091278,83.658852 165.921432,83.966194 
	C165.921432,83.966194 165.988770,83.988777 165.710236,84.016266 
	C165.261734,84.351212 165.091751,84.658676 164.921768,84.966141 
	C164.921768,84.966141 164.989151,84.989357 164.708008,85.015778 
	C164.258347,85.352081 164.089813,85.661964 163.921280,85.971848 
	C163.921280,85.971848 163.989288,85.991302 163.564636,85.983368 
	C161.779694,85.926430 160.419388,85.877419 159.059082,85.828400 
	C156.029160,83.554825 152.999222,81.281258 149.779373,78.865181 
	C154.458893,74.235718 157.492783,71.234268 160.856262,68.131691 
z"/>
<path fill="#FCF3DA" opacity="1.000000" stroke="none" 
	d="
M158.990524,86.200592 
	C160.419388,85.877419 161.779694,85.926430 163.549988,85.951187 
	C163.542892,86.626640 163.125824,87.326355 162.375168,88.182037 
	C161.001709,87.749596 159.961838,87.161186 158.990524,86.200592 
z"/>
<path fill="#FEF1D1" opacity="1.000000" stroke="none" 
	d="
M174.584625,53.891285 
	C174.876968,54.062218 174.914230,54.245716 175.015030,54.702747 
	C174.752945,54.851868 174.427307,54.727451 173.970764,54.326103 
	C174.003082,54.000729 174.166321,53.952290 174.584625,53.891285 
z"/>
<path fill="#F2EDDD" opacity="1.000000" stroke="none" 
	d="
M125.837387,122.245560 
	C126.616646,121.948845 127.173470,121.965836 128.147537,122.033051 
	C127.581505,122.241943 126.598228,122.400604 125.837387,122.245560 
z"/>
<path fill="#F8EFD7" opacity="1.000000" stroke="none" 
	d="
M82.508553,76.172134 
	C82.585274,76.583992 82.329323,77.013786 82.077774,77.707077 
	C81.730644,77.806732 81.379120,77.642876 81.027596,77.479019 
	C81.410362,77.049377 81.793129,76.619728 82.508553,76.172134 
z"/>
<path fill="#FEF3D8" opacity="1.000000" stroke="none" 
	d="
M148.235199,102.151886 
	C148.392212,101.633347 148.849121,101.322044 149.620880,100.960205 
	C149.468842,101.392815 149.001984,101.875969 148.235199,102.151886 
z"/>
<path fill="#F2EDDD" opacity="1.000000" stroke="none" 
	d="
M108.888672,105.292389 
	C109.355217,105.090416 109.662155,105.257065 110.024414,105.691574 
	C109.629509,105.859947 109.179291,105.760475 108.888672,105.292389 
z"/>
<path fill="#FEF3D8" opacity="1.000000" stroke="none" 
	d="
M145.289810,105.082870 
	C145.092392,104.656410 145.261795,104.350060 145.697662,103.983337 
	C145.861618,104.349632 145.759125,104.776314 145.289810,105.082870 
z"/>
<path fill="#F2EDDD" opacity="1.000000" stroke="none" 
	d="
M107.894653,104.301300 
	C108.352928,104.088417 108.659355,104.254135 109.021538,104.686661 
	C108.632462,104.862274 108.187630,104.771080 107.894653,104.301300 
z"/>
<path fill="#FEF3D8" opacity="1.000000" stroke="none" 
	d="
M144.291855,106.074890 
	C144.089340,105.655701 144.256668,105.346794 144.692642,104.980835 
	C144.861435,105.344254 144.761551,105.764717 144.291855,106.074890 
z"/>
<path fill="#FEF3D8" opacity="1.000000" stroke="none" 
	d="
M146.290009,104.083649 
	C146.091965,103.657547 146.260971,103.350983 146.696320,102.983704 
	C146.860794,103.349709 146.758926,103.776451 146.290009,104.083649 
z"/>
<path fill="#F2EDDD" opacity="1.000000" stroke="none" 
	d="
M106.914810,103.301430 
	C107.348778,103.085892 107.656639,103.251358 108.020416,103.684387 
	C107.647133,103.862106 107.217918,103.772270 106.914810,103.301430 
z"/>
<path fill="#FEF3D8" opacity="1.000000" stroke="none" 
	d="
M147.287567,103.090988 
	C147.091537,102.652740 147.259293,102.344276 147.695801,101.978905 
	C147.860153,102.354919 147.755768,102.787842 147.287567,103.090988 
z"/>
<path fill="#F2EDDD" opacity="1.000000" stroke="none" 
	d="
M109.916321,106.289200 
	C110.350014,106.087418 110.658791,106.254211 111.023468,106.689873 
	C110.650055,106.858421 110.220726,106.758102 109.916321,106.289200 
z"/>
<path fill="#FEF3D8" opacity="1.000000" stroke="none" 
	d="
M143.284378,107.073318 
	C143.090088,106.655258 143.258102,106.345963 143.695328,105.979362 
	C143.858597,106.342072 143.752655,106.762085 143.284378,107.073318 
z"/>
<path fill="#F2EDDD" opacity="1.000000" stroke="none" 
	d="
M105.915482,102.290100 
	C106.350151,102.087425 106.658791,102.254150 107.023315,102.689629 
	C106.649277,102.858749 106.219360,102.759117 105.915482,102.290100 
z"/>
<path fill="#F2EDDD" opacity="1.000000" stroke="none" 
	d="
M104.915443,101.289879 
	C105.350319,101.087395 105.659073,101.254044 106.023544,101.689552 
	C105.649277,101.858612 105.219292,101.758812 104.915443,101.289879 
z"/>
<path fill="#F2EDDD" opacity="1.000000" stroke="none" 
	d="
M116.908142,113.304077 
	C117.350067,113.086212 117.657463,113.251411 118.020393,113.683861 
	C117.641823,113.863121 117.207718,113.775131 116.908142,113.304077 
z"/>
<path fill="#F2EDDD" opacity="1.000000" stroke="none" 
	d="
M124.908325,121.292984 
	C125.351768,121.087547 125.660126,121.253700 126.023651,121.688461 
	C125.643631,121.859566 125.208435,121.762077 124.908325,121.292984 
z"/>
<path fill="#F2EDDD" opacity="1.000000" stroke="none" 
	d="
M123.881508,120.296326 
	C124.356522,120.090385 124.663147,120.256287 125.024414,120.689789 
	C124.623734,120.860985 124.168434,120.764580 123.881508,120.296326 
z"/>
<path fill="#F2EDDD" opacity="1.000000" stroke="none" 
	d="
M122.888611,119.304565 
	C123.353905,119.088493 123.660019,119.253693 124.021408,119.685425 
	C123.627602,119.863258 123.178513,119.774551 122.888611,119.304565 
z"/>
<path fill="#F2EDDD" opacity="1.000000" stroke="none" 
	d="
M121.908813,118.304703 
	C122.349648,118.086113 122.657074,118.251221 123.020126,118.683533 
	C122.642311,118.863281 122.208855,118.775841 121.908813,118.304703 
z"/>
<path fill="#F2EDDD" opacity="1.000000" stroke="none" 
	d="
M120.910400,117.293617 
	C121.350761,117.087509 121.658981,117.253845 122.022858,117.688530 
	C121.645088,117.859940 121.211670,117.763000 120.910400,117.293617 
z"/>
<path fill="#F2EDDD" opacity="1.000000" stroke="none" 
	d="
M119.910583,116.292572 
	C120.350906,116.087585 120.659233,116.253983 121.023170,116.688873 
	C120.645386,116.859566 120.211975,116.761757 119.910583,116.292572 
z"/>
<path fill="#FEF3D8" opacity="1.000000" stroke="none" 
	d="
M134.492737,116.121765 
	C134.240051,115.863091 134.306473,115.488586 134.664459,115.023453 
	C134.907974,115.290535 134.859909,115.648232 134.492737,116.121765 
z"/>
<path fill="#F2EDDD" opacity="1.000000" stroke="none" 
	d="
M118.883575,115.295448 
	C119.355896,115.090508 119.662498,115.256729 120.024132,115.690483 
	C119.625397,115.860878 119.171623,115.763741 118.883575,115.295448 
z"/>
<path fill="#FEF3D8" opacity="1.000000" stroke="none" 
	d="
M135.290009,115.079636 
	C135.093063,114.662277 135.261536,114.353806 135.697510,113.984070 
	C135.861816,114.344711 135.758621,114.766617 135.290009,115.079636 
z"/>
<path fill="#F2EDDD" opacity="1.000000" stroke="none" 
	d="
M117.889709,114.303986 
	C118.353798,114.088478 118.660072,114.253746 119.021561,114.685722 
	C118.628487,114.863205 118.180191,114.773972 117.889709,114.303986 
z"/>
<path fill="#FEF3D8" opacity="1.000000" stroke="none" 
	d="
M136.287811,114.079742 
	C136.092010,113.658424 136.261353,113.351578 136.697266,112.983688 
	C136.860229,113.346512 136.756592,113.770363 136.287811,114.079742 
z"/>
<path fill="#F2EDDD" opacity="1.000000" stroke="none" 
	d="
M110.915756,107.293839 
	C111.349548,107.086761 111.657997,107.252983 112.022369,107.687561 
	C111.648994,107.859657 111.219704,107.763390 110.915756,107.293839 
z"/>
<path fill="#FEF3D8" opacity="1.000000" stroke="none" 
	d="
M137.285217,113.086868 
	C137.091629,112.653687 137.259796,112.344955 137.696930,111.978912 
	C137.859573,112.351517 137.753281,112.781418 137.285217,113.086868 
z"/>
<path fill="#F2EDDD" opacity="1.000000" stroke="none" 
	d="
M115.911278,112.293839 
	C116.350555,112.087303 116.658806,112.253548 117.022766,112.688118 
	C116.645744,112.859833 116.212990,112.763229 115.911278,112.293839 
z"/>
<path fill="#FEF3D8" opacity="1.000000" stroke="none" 
	d="
M138.281677,112.068741 
	C138.090042,111.656204 138.258453,111.346581 138.696350,110.979294 
	C138.857803,111.338303 138.749756,111.754974 138.281677,112.068741 
z"/>
<path fill="#F2EDDD" opacity="1.000000" stroke="none" 
	d="
M114.912094,111.291672 
	C115.350716,111.087509 115.659172,111.253998 116.023293,111.689087 
	C115.646614,111.859238 115.214279,111.760773 114.912094,111.291672 
z"/>
<path fill="#FEF3D8" opacity="1.000000" stroke="none" 
	d="
M139.289185,111.070404 
	C139.089325,110.656639 139.257034,110.347427 139.693665,109.980820 
	C139.860626,110.340607 139.758682,110.757782 139.289185,111.070404 
z"/>
<path fill="#F2EDDD" opacity="1.000000" stroke="none" 
	d="
M113.884232,110.295090 
	C114.355736,110.090500 114.662430,110.256744 115.024178,110.690605 
	C114.625969,110.860786 114.172699,110.763344 113.884232,110.295090 
z"/>
<path fill="#FEF3D8" opacity="1.000000" stroke="none" 
	d="
M140.287231,110.078598 
	C140.092422,109.657318 140.262192,109.350616 140.698700,108.983276 
	C140.860886,109.346146 140.756348,109.769661 140.287231,110.078598 
z"/>
<path fill="#F2EDDD" opacity="1.000000" stroke="none" 
	d="
M112.890533,109.303535 
	C113.353600,109.088486 113.659981,109.253807 114.021591,109.685921 
	C113.629166,109.863121 113.181503,109.773514 112.890533,109.303535 
z"/>
<path fill="#FEF3D8" opacity="1.000000" stroke="none" 
	d="
M141.287308,109.079109 
	C141.091995,108.658485 141.261353,108.351555 141.697388,107.983597 
	C141.860016,108.345985 141.755997,108.769394 141.287308,109.079109 
z"/>
<path fill="#F2EDDD" opacity="1.000000" stroke="none" 
	d="
M111.905914,108.304092 
	C112.350502,108.086510 112.657745,108.251778 113.020500,108.684235 
	C112.640198,108.863266 112.204384,108.775108 111.905914,108.304092 
z"/>
<path fill="#FEF3D8" opacity="1.000000" stroke="none" 
	d="
M142.286835,108.086899 
	C142.091217,107.653763 142.259033,107.344986 142.695755,106.979111 
	C142.859879,107.351761 142.755096,107.781517 142.286835,108.086899 
z"/>
<path fill="#F8EFD7" opacity="1.000000" stroke="none" 
	d="
M86.919113,83.299026 
	C87.347122,83.087776 87.654884,83.253471 88.018799,83.686676 
	C87.649582,83.861450 87.224228,83.768715 86.919113,83.299026 
z"/>
<path fill="#F8EFD7" opacity="1.000000" stroke="none" 
	d="
M89.920013,86.288383 
	C90.348045,86.089394 90.656670,86.256371 91.021362,86.692101 
	C90.651825,86.858688 90.226212,86.756516 89.920013,86.288383 
z"/>
<path fill="#F8EFD7" opacity="1.000000" stroke="none" 
	d="
M88.895309,85.291527 
	C89.352943,85.092003 89.659882,85.258789 90.022354,85.693375 
	C89.633461,85.860062 89.189049,85.758949 88.895309,85.291527 
z"/>
<path fill="#F8EFD7" opacity="1.000000" stroke="none" 
	d="
M87.900558,84.299438 
	C88.351028,84.090088 88.657562,84.255905 89.019882,84.688614 
	C88.635994,84.861877 88.196312,84.768234 87.900558,84.299438 
z"/>
<path fill="#F8EFD7" opacity="1.000000" stroke="none" 
	d="
M85.919540,82.288910 
	C86.348358,82.089188 86.656845,82.256042 87.021477,82.691483 
	C86.651489,82.858551 86.225349,82.757019 85.919540,82.288910 
z"/>
<path fill="#F8EFD7" opacity="1.000000" stroke="none" 
	d="
M84.919586,81.288780 
	C85.348457,81.089134 85.657021,81.255936 86.021622,81.691414 
	C85.651527,81.858467 85.225410,81.756844 84.919586,81.288780 
z"/>
<path fill="#F8EFD7" opacity="1.000000" stroke="none" 
	d="
M83.898376,80.291428 
	C84.352356,80.091370 84.659615,80.258018 85.022400,80.692627 
	C84.635826,80.859779 84.193741,80.758957 83.898376,80.291428 
z"/>
<path fill="#F8EFD7" opacity="1.000000" stroke="none" 
	d="
M82.905441,79.296616 
	C83.349617,79.090103 83.656212,79.256500 84.019516,79.689728 
	C83.640114,79.860886 83.203979,79.765213 82.905441,79.296616 
z"/>
<path fill="#F8EFD7" opacity="1.000000" stroke="none" 
	d="
M81.919777,78.297119 
	C82.344154,78.088165 82.652504,78.254196 83.018196,78.687927 
	C82.651604,78.861130 82.227684,78.766617 81.919777,78.297119 
z"/>
<path fill="#FCF3DA" opacity="1.000000" stroke="none" 
	d="
M171.268372,79.151001 
	C170.944397,78.528351 170.958969,78.106064 170.952332,77.367554 
	C171.547623,77.231171 172.164093,77.411011 172.780579,77.590851 
	C172.389374,78.177696 171.998154,78.764534 171.268372,79.151001 
z"/>
<path fill="#FCF3DA" opacity="1.000000" stroke="none" 
	d="
M171.179504,76.756432 
	C170.627441,76.591377 170.312225,76.119682 169.920746,75.332047 
	C170.368408,75.493996 170.892380,75.971893 171.179504,76.756432 
z"/>
<path fill="#FEF1D1" opacity="1.000000" stroke="none" 
	d="
M185.835083,66.210266 
	C186.362732,66.432426 186.663208,66.922569 186.902069,67.744080 
	C186.429596,67.543053 186.018768,67.010651 185.835083,66.210266 
z"/>
<path fill="#FEF1D1" opacity="1.000000" stroke="none" 
	d="
M176.938354,57.285301 
	C177.343491,57.089588 177.653473,57.256653 178.019638,57.693398 
	C177.664948,57.858078 177.254089,57.753078 176.938354,57.285301 
z"/>
<path fill="#FEF1D1" opacity="1.000000" stroke="none" 
	d="
M174.925812,55.281921 
	C175.340714,55.091351 175.652298,55.258099 176.020660,55.695663 
	C175.659134,55.857403 175.240829,55.748318 174.925812,55.281921 
z"/>
<path fill="#FEF1D1" opacity="1.000000" stroke="none" 
	d="
M175.940140,56.277855 
	C176.343872,56.090321 176.654297,56.258137 177.021118,56.696247 
	C176.667282,56.855427 176.257050,56.744316 175.940140,56.277855 
z"/>
<path fill="#FEF1D1" opacity="1.000000" stroke="none" 
	d="
M177.930389,58.283550 
	C178.342743,58.092770 178.649979,58.262096 179.016891,58.698753 
	C178.659470,58.858608 178.242386,58.751133 177.930389,58.283550 
z"/>
<path fill="#FEF1D1" opacity="1.000000" stroke="none" 
	d="
M178.929535,59.283768 
	C179.341400,59.092278 179.648880,59.261105 180.016449,59.697136 
	C179.659409,59.857582 179.242264,59.750835 178.929535,59.283768 
z"/>
<path fill="#FEF1D1" opacity="1.000000" stroke="none" 
	d="
M179.921158,60.284321 
	C180.346649,60.091217 180.656128,60.258186 181.021271,60.694771 
	C180.653000,60.857719 180.229065,60.751057 179.921158,60.284321 
z"/>
<path fill="#FEF1D1" opacity="1.000000" stroke="none" 
	d="
M180.933472,61.281906 
	C181.345551,61.090286 181.655411,61.257462 182.021088,61.694481 
	C181.661697,61.856453 181.246490,61.748577 180.933472,61.281906 
z"/>
<path fill="#FEF1D1" opacity="1.000000" stroke="none" 
	d="
M181.931870,62.288849 
	C182.345169,62.089626 182.654648,62.256145 183.019714,62.691986 
	C182.659561,62.859066 182.243805,62.756828 181.931870,62.288849 
z"/>
<path fill="#FEF1D1" opacity="1.000000" stroke="none" 
	d="
M182.924194,63.287762 
	C183.344452,63.092392 183.651535,63.260773 184.017319,63.696358 
	C183.654358,63.859547 183.232681,63.755527 182.924194,63.287762 
z"/>
<path fill="#FEF1D1" opacity="1.000000" stroke="none" 
	d="
M183.922302,64.288094 
	C184.343582,64.091965 184.650742,64.259956 185.016861,64.695007 
	C184.653259,64.858780 184.230728,64.755493 183.922302,64.288094 
z"/>
<path fill="#FEF1D1" opacity="1.000000" stroke="none" 
	d="
M184.914383,65.287254 
	C185.348343,65.091469 185.657333,65.257988 186.021362,65.693817 
	C185.647400,65.858597 185.218399,65.754082 184.914383,65.287254 
z"/>
<path fill="#FCF3DA" opacity="1.000000" stroke="none" 
	d="
M164.287292,86.065247 
	C164.089813,85.661964 164.258347,85.352081 164.695755,84.982323 
	C164.860855,85.334511 164.757080,85.746582 164.287292,86.065247 
z"/>
<path fill="#FCF3DA" opacity="1.000000" stroke="none" 
	d="
M165.286316,85.078178 
	C165.091751,84.658676 165.261734,84.351212 165.698944,83.982597 
	C165.861069,84.344368 165.755951,84.767296 165.286316,85.078178 
z"/>
<path fill="#FCF3DA" opacity="1.000000" stroke="none" 
	d="
M166.286026,84.078262 
	C166.091278,83.658852 166.261108,83.351509 166.697937,82.982788 
	C166.860168,83.344391 166.755402,83.767365 166.286026,84.078262 
z"/>
<path fill="#FCF3DA" opacity="1.000000" stroke="none" 
	d="
M167.286072,83.087318 
	C167.090591,82.654060 167.258850,82.344933 167.696350,81.978394 
	C167.860321,82.351128 167.755051,82.781288 167.286072,83.087318 
z"/>
<path fill="#FCF3DA" opacity="1.000000" stroke="none" 
	d="
M168.283218,82.072914 
	C168.089432,81.655823 168.257889,81.346039 168.695969,80.978615 
	C168.858887,81.340721 168.752182,81.760475 168.283218,82.072914 
z"/>
<path fill="#FCF3DA" opacity="1.000000" stroke="none" 
	d="
M169.292404,81.075104 
	C169.088501,80.656342 169.256027,80.347107 169.692383,79.980461 
	C169.862091,80.343582 169.762970,80.764107 169.292404,81.075104 
z"/>
<path fill="#FCF3DA" opacity="1.000000" stroke="none" 
	d="
M170.291580,80.087357 
	C170.091690,79.656044 170.261078,79.349495 170.697067,78.982620 
	C170.862732,79.352242 170.761795,79.782181 170.291580,80.087357 
z"/>
<path fill="#000000" opacity="1.000000" stroke="none" 
	d="
M391.833099,75.144493 
	C394.564514,69.527031 396.827850,68.922020 402.008972,73.024666 
	C402.449890,73.809319 402.708252,73.979439 403.016998,74.073059 
	C403.016998,74.073059 403.016144,73.986954 402.998657,74.427094 
	C402.981201,76.125832 402.981201,77.384422 402.981201,78.795319 
	C398.884644,78.795319 395.284607,78.795319 391.833099,78.795319 
	C391.833099,77.633377 391.833099,76.388939 391.833099,75.144493 
z"/>
<path fill="#B4C5D7" opacity="1.000000" stroke="none" 
	d="
M391.463806,75.209572 
	C391.833099,76.388939 391.833099,77.633377 391.833099,78.795319 
	C395.284607,78.795319 398.884644,78.795319 402.981201,78.795319 
	C402.981201,77.384422 402.981201,76.125832 402.955658,74.425125 
	C403.646606,75.604286 404.363098,77.225571 405.387360,79.543167 
	C399.724060,79.543167 395.104004,79.543167 389.718781,79.543167 
	C390.217468,77.995926 390.656006,76.635292 391.463806,75.209572 
z"/>
<path fill="#B4C5D7" opacity="1.000000" stroke="none" 
	d="
M402.956360,73.845345 
	C402.708252,73.979439 402.449890,73.809319 402.192810,73.332932 
	C402.485779,73.141136 402.736420,73.312622 402.956360,73.845345 
z"/>
<path fill="#000000" opacity="1.000000" stroke="none" 
	d="
M278.634399,73.545105 
	C280.867889,79.026192 280.249908,80.000336 274.851746,80.066261 
	C272.411652,80.096062 269.970856,80.071304 267.383942,80.071304 
	C266.825287,75.683662 268.194824,72.415283 271.414124,70.450287 
	C274.483459,68.576820 276.565063,71.057365 278.634399,73.545105 
z"/>
</svg>